{"glyphs":{"0":{"ha":797,"x_min":35,"x_max":763,"o":"m 663 115 q 614 51 663 115 q 397 -14 564 -14 q 133 115 231 -14 q 35 460 35 243 q 133 806 35 678 q 397 935 231 935 q 663 806 564 935 q 763 460 763 678 q 663 115 763 244 m 544 436 q 506 686 544 575 q 397 797 467 797 q 290 712 332 797 q 249 503 249 626 q 288 238 249 353 q 396 122 326 122 q 503 213 463 122 q 544 436 544 303 z "},"1":{"ha":797,"x_min":117,"x_max":665,"o":"m 515 131 q 653 136 604 131 q 665 75 665 108 q 597 -3 665 -3 q 493 -1 585 -3 q 322 0 401 0 q 136 -1 192 0 q 122 67 122 38 q 217 135 122 135 l 297 135 q 299 278 297 157 q 300 492 300 400 q 296 785 300 651 q 122 765 146 769 q 117 819 117 801 q 188 914 117 906 q 432 935 351 935 q 491 918 465 935 q 517 865 517 901 q 514 789 517 854 q 508 624 511 724 q 506 432 506 525 l 506 360 q 515 131 506 207 z "},"2":{"ha":797,"x_min":54,"x_max":751,"o":"m 179 669 q 76 779 76 699 q 182 885 76 835 q 407 935 288 935 q 618 866 532 935 q 704 671 704 797 q 689 581 704 628 q 655 498 674 535 q 596 414 636 461 q 532 341 556 367 q 455 269 508 315 q 383 208 401 222 q 313 150 365 193 q 343 149 315 149 q 586 154 513 149 q 733 185 660 160 q 751 103 751 136 q 715 21 751 42 q 454 -3 672 -3 q 282 -1 392 -3 q 128 0 172 0 q 54 83 54 0 q 63 146 54 107 q 411 472 331 381 q 492 654 492 564 q 461 761 492 726 q 381 796 431 796 q 269 760 326 796 q 179 669 213 724 z "},"3":{"ha":797,"x_min":75,"x_max":697,"o":"m 506 506 q 657 403 617 461 q 697 264 697 346 q 596 69 697 151 q 318 -14 494 -14 q 252 -11 285 -14 q 175 1 219 -8 q 103 32 131 10 q 75 88 75 54 q 100 148 75 119 q 163 188 125 176 q 224 140 179 158 q 319 121 268 121 q 431 158 383 121 q 479 258 479 194 q 430 379 479 333 q 299 425 381 425 q 260 426 274 425 q 231 435 247 428 q 207 458 214 442 q 200 501 200 475 q 204 547 200 528 q 388 594 326 547 q 450 706 450 642 q 424 775 450 751 q 356 799 397 799 q 261 768 307 799 q 200 689 215 738 q 121 723 149 696 q 93 782 93 750 q 176 887 93 839 q 385 935 260 935 q 593 872 518 935 q 668 721 668 808 q 506 506 668 572 z "},"4":{"ha":797,"x_min":19,"x_max":782,"o":"m 218 406 q 324 404 249 404 q 426 408 378 404 q 431 682 426 536 q 374 613 419 668 q 291 508 329 558 q 218 406 253 458 m 392 892 q 544 935 439 935 q 646 925 610 935 q 642 866 646 921 q 636 713 639 811 q 633 507 633 615 l 633 411 q 768 435 735 419 q 782 353 782 396 q 754 281 782 293 q 633 263 718 264 q 667 4 633 113 q 549 -14 615 -14 q 449 14 474 -14 q 424 110 424 42 q 426 264 424 117 q 83 272 183 264 q 32 295 44 275 q 19 356 19 315 q 22 394 19 367 q 203 660 79 492 q 392 892 328 828 z "},"5":{"ha":797,"x_min":71,"x_max":694,"o":"m 383 621 q 613 533 531 621 q 694 311 694 444 q 660 159 694 225 q 567 56 625 93 q 444 2 508 19 q 308 -15 379 -15 q 140 11 208 -15 q 71 82 71 38 q 97 138 71 111 q 161 175 122 165 q 303 117 201 117 q 429 167 382 117 q 476 289 476 218 q 413 431 476 371 q 226 492 349 492 q 133 482 189 492 q 119 575 119 503 q 138 922 119 596 q 478 919 188 919 q 668 931 632 919 q 689 857 689 890 q 660 792 689 817 q 579 767 631 767 q 328 775 474 767 l 307 615 q 383 621 342 621 z "},"6":{"ha":797,"x_min":71,"x_max":721,"o":"m 406 124 q 478 165 451 124 q 504 264 504 206 q 478 383 504 329 q 392 436 451 436 q 286 404 346 436 q 292 297 286 343 q 309 210 297 251 q 345 146 321 168 q 406 124 369 124 m 394 -14 q 238 19 303 -14 q 137 111 172 53 q 86 236 101 169 q 71 382 71 303 q 124 646 71 522 q 290 852 178 769 q 549 935 401 935 q 637 917 610 935 q 664 851 664 900 q 656 785 664 825 q 567 794 624 794 q 367 713 436 794 q 288 510 299 632 q 456 571 367 571 q 651 489 581 569 q 721 296 721 408 q 635 79 721 172 q 394 -14 549 -14 z "},"7":{"ha":797,"x_min":57,"x_max":763,"o":"m 547 774 q 158 767 346 767 q 83 794 108 767 q 57 863 57 821 q 74 931 57 897 q 251 919 151 919 q 750 922 668 919 q 763 869 763 900 q 754 818 763 843 q 383 82 714 697 q 329 6 354 26 q 275 -14 304 -14 q 89 67 172 -14 q 348 403 207 178 q 547 774 489 629 z "},"8":{"ha":797,"x_min":71,"x_max":732,"o":"m 400 797 q 321 733 321 797 q 353 644 321 692 q 422 581 385 597 q 482 715 482 622 q 400 797 482 793 m 400 124 q 483 159 453 124 q 513 247 513 194 q 478 356 513 303 q 379 440 444 408 q 313 360 340 417 q 286 246 286 303 q 314 158 286 192 q 400 124 342 124 m 646 60 q 603 23 646 60 q 401 -14 560 -14 q 157 60 243 -14 q 71 236 71 133 q 124 397 71 340 q 278 499 176 453 q 151 595 194 539 q 107 738 107 651 q 193 880 107 825 q 400 935 279 935 q 616 875 539 935 q 693 732 693 815 q 649 613 693 669 q 522 521 604 556 q 678 409 625 475 q 732 236 732 343 q 646 60 732 133 z "},"9":{"ha":797,"x_min":71,"x_max":721,"o":"m 386 797 q 314 756 340 797 q 288 657 288 715 q 314 538 288 592 q 400 485 340 485 q 506 517 446 485 q 500 624 506 578 q 483 711 494 669 q 447 775 471 753 q 386 797 422 797 m 397 935 q 554 901 489 935 q 655 810 619 868 q 706 685 690 751 q 721 539 721 618 q 667 275 721 399 q 502 69 614 151 q 243 -14 390 -14 q 155 3 182 -14 q 128 69 128 21 q 136 136 128 97 q 225 126 168 126 q 424 208 356 126 q 504 411 493 289 q 336 350 425 350 q 141 432 211 351 q 71 625 71 513 q 157 842 71 749 q 397 935 243 935 z "}," ":{"ha":299,"x_min":0,"x_max":0,"o":""},"!":{"ha":438,"x_min":90,"x_max":356,"o":"m 229 -14 q 140 21 176 -14 q 104 110 104 56 q 142 197 104 161 q 232 233 181 233 q 319 197 282 233 q 356 110 356 161 q 317 22 356 57 q 229 -14 279 -14 m 339 860 q 328 712 339 817 q 317 549 317 607 q 335 344 317 393 q 232 318 282 318 q 151 340 183 318 q 118 404 118 363 q 119 456 118 415 q 119 525 119 496 q 90 949 119 847 q 221 964 154 964 q 339 860 339 964 z "},"\"":{"ha":601,"x_min":42,"x_max":563,"o":"m 465 1024 q 563 947 563 1024 q 533 700 563 861 q 442 632 521 632 q 371 643 404 632 q 375 701 375 669 q 365 846 375 767 q 356 947 356 925 q 378 1004 356 985 q 465 1024 401 1024 m 151 1024 q 249 947 249 1024 q 219 700 249 861 q 128 632 207 632 q 57 643 90 632 q 61 701 61 671 q 51 846 61 767 q 42 947 42 925 q 65 1004 42 985 q 151 1024 88 1024 z "},"#":{"ha":797,"x_min":-10,"x_max":807,"o":"m 308 369 q 469 372 418 369 q 490 539 474 393 q 389 542 446 542 l 335 542 q 308 369 315 425 m 581 890 q 628 875 608 890 q 647 828 647 860 q 613 643 647 808 q 807 656 632 644 q 806 616 807 629 q 799 582 804 603 q 785 551 794 561 q 757 533 775 542 q 713 525 739 525 q 677 529 707 525 q 594 535 647 533 q 568 372 582 475 q 769 386 617 374 q 768 347 769 360 q 762 313 767 333 q 747 281 757 292 q 719 263 738 271 q 675 256 701 256 q 636 259 667 256 q 554 265 606 263 q 550 118 550 199 q 551 33 550 54 q 482 18 524 18 q 436 33 450 18 q 422 83 422 49 q 438 179 422 101 q 453 269 453 257 q 353 271 399 271 l 296 271 q 283 100 283 150 q 285 33 283 57 q 222 18 257 18 q 176 33 190 18 q 163 83 163 49 q 193 269 163 90 q -4 233 90 265 q -10 294 -10 254 q 18 354 -10 335 q 115 374 46 374 q 156 373 125 374 q 211 372 188 372 l 231 539 q 136 530 168 536 q 33 503 104 524 q 28 564 28 524 q 56 623 28 603 q 153 643 85 643 l 243 642 q 268 885 265 824 q 321 890 296 890 q 368 875 349 890 q 388 828 388 860 q 351 639 388 817 l 503 639 q 528 885 524 818 q 581 890 556 890 z "},"$":{"ha":797,"x_min":79,"x_max":704,"o":"m 443 -104 l 413 -108 q 353 -54 357 -108 l 353 -12 q 159 28 239 -8 q 79 114 79 65 q 98 165 79 143 q 138 199 117 188 q 203 228 160 210 q 259 151 219 183 q 353 113 299 119 l 353 381 q 300 397 317 392 q 251 417 283 403 q 201 445 218 432 q 161 482 185 458 q 126 533 138 506 q 105 598 114 560 q 96 683 96 636 q 169 851 96 789 q 351 928 242 913 q 344 1019 350 963 q 379 1026 368 1026 q 432 972 432 1026 l 432 932 q 607 894 529 928 q 685 806 685 861 q 553 694 685 718 q 504 763 538 735 q 432 800 471 792 l 432 549 q 507 524 483 533 q 576 492 531 515 q 644 442 621 468 q 685 369 667 415 q 704 265 704 324 q 636 79 704 156 q 435 -11 568 3 q 443 -104 435 -14 m 514 242 q 433 353 514 315 l 433 119 q 514 242 514 149 m 285 693 q 353 583 285 622 l 353 793 q 303 753 322 781 q 285 693 285 726 z "},"%":{"ha":1226,"x_min":44,"x_max":1181,"o":"m 944 -14 q 770 49 835 -14 q 706 217 706 111 q 770 385 706 324 q 944 447 835 447 q 1117 385 1053 447 q 1181 217 1181 322 q 1117 49 1181 111 q 944 -14 1053 -14 m 1017 207 q 998 303 1017 261 q 944 346 979 346 q 890 314 911 346 q 868 233 868 282 q 888 133 868 176 q 943 89 907 89 q 997 122 976 89 q 1017 207 1017 156 m 303 61 l 626 574 q 864 971 769 799 q 926 951 899 969 q 954 907 954 933 q 940 865 954 886 l 617 351 q 378 -46 490 151 q 286 14 292 -28 q 303 61 286 38 m 283 463 q 109 525 174 463 q 44 693 44 588 q 109 862 44 800 q 283 924 174 924 q 456 861 392 924 q 519 693 519 799 q 456 525 519 588 q 283 463 392 463 m 356 683 q 337 780 356 738 q 283 822 318 822 q 228 790 250 822 q 207 710 207 758 q 226 609 207 653 q 282 565 246 565 q 335 599 315 565 q 356 683 356 632 z "},"&":{"ha":935,"x_min":44,"x_max":908,"o":"m 279 340 q 253 254 253 300 q 301 151 253 188 q 418 115 350 115 q 485 125 454 115 q 279 340 376 214 m 379 807 q 315 778 339 807 q 292 703 292 750 q 339 560 292 636 q 444 724 444 636 q 425 783 444 760 q 379 807 406 807 m 44 238 q 189 475 44 374 q 100 715 100 603 q 176 875 100 815 q 397 935 253 935 q 583 883 515 935 q 650 758 650 831 q 633 674 650 714 q 595 606 617 633 q 535 548 574 579 q 472 502 496 517 q 407 463 449 488 q 589 274 494 351 q 596 340 596 315 q 576 443 596 382 q 669 469 621 469 q 797 376 797 469 q 783 278 797 319 q 733 176 769 238 q 900 133 819 133 q 908 78 908 97 q 811 -14 908 -14 q 597 49 711 -14 q 379 -12 507 -12 q 144 55 244 -12 q 44 238 44 122 z "},"'":{"ha":388,"x_min":69,"x_max":276,"o":"m 179 1024 q 276 947 276 1024 q 247 700 276 861 q 156 632 235 632 q 85 643 118 632 q 89 701 89 671 q 79 846 89 767 q 69 947 69 925 q 92 1004 69 985 q 179 1024 115 1024 z "},"(":{"ha":468,"x_min":81,"x_max":429,"o":"m 81 364 q 115 609 81 485 q 197 819 149 733 q 294 960 244 906 q 375 1015 343 1015 q 429 983 403 1015 q 317 719 361 888 q 272 364 272 550 q 315 20 272 193 q 429 -250 358 -153 q 375 -282 403 -282 q 292 -226 342 -282 q 194 -83 242 -169 q 114 126 147 4 q 81 364 81 249 z "},")":{"ha":493,"x_min":0,"x_max":349,"o":"m 349 364 q 315 126 349 249 q 235 -83 282 4 q 138 -226 188 -169 q 54 -282 88 -282 q 0 -250 26 -282 q 114 20 71 -153 q 157 364 157 193 q 113 719 157 550 q 0 983 68 888 q 54 1015 26 1015 q 135 960 86 1015 q 233 819 185 906 q 315 609 281 733 q 349 364 349 485 z "},"*":{"ha":563,"x_min":32,"x_max":522,"o":"m 358 968 q 344 863 358 918 q 461 953 443 935 q 522 861 522 900 q 357 761 522 803 q 503 635 454 671 q 461 588 488 607 q 404 568 435 568 q 344 599 371 568 q 281 699 317 631 q 190 544 229 607 q 119 583 150 558 q 88 633 88 607 q 206 767 88 681 q 32 824 101 804 q 61 892 38 861 q 119 922 85 922 q 226 867 174 922 q 218 933 225 878 q 204 1019 211 989 q 272 1032 247 1032 q 358 968 358 1032 z "},"+":{"ha":797,"x_min":49,"x_max":750,"o":"m 456 406 q 744 421 601 406 q 750 363 750 404 q 730 303 750 328 q 678 279 710 279 q 574 286 644 279 q 454 293 503 293 q 469 13 454 183 q 410 7 440 7 q 351 25 376 7 q 326 78 326 43 q 332 147 326 89 q 340 294 338 204 q 54 279 276 294 q 49 338 49 308 q 66 395 49 369 q 121 421 83 421 q 195 415 132 421 q 343 407 258 410 q 326 688 343 550 q 386 693 344 693 q 445 674 421 693 q 469 622 469 654 q 463 522 469 589 q 456 406 456 456 z "},",":{"ha":358,"x_min":25,"x_max":306,"o":"m 51 79 q 85 158 51 128 q 175 189 119 189 q 272 144 238 189 q 306 32 306 100 q 242 -146 306 -65 q 76 -226 178 -226 q 25 -172 25 -226 q 28 -143 25 -165 l 35 -143 q 100 -113 72 -143 q 128 -50 128 -83 q 65 17 128 7 q 51 79 51 46 z "},"-":{"ha":393,"x_min":35,"x_max":386,"o":"m 386 374 q 358 307 386 332 q 282 282 329 282 q 226 287 267 282 q 164 292 186 292 q 44 269 111 292 q 35 349 35 318 q 60 413 35 386 q 139 440 85 440 q 188 436 147 440 q 251 432 228 432 l 263 432 q 371 453 322 432 q 386 374 386 411 z "},".":{"ha":353,"x_min":44,"x_max":299,"o":"m 171 -14 q 81 23 118 -14 q 44 117 44 60 q 83 208 44 171 q 174 246 122 246 q 262 208 225 246 q 299 117 299 171 q 260 24 299 61 q 171 -14 221 -14 z "},"/":{"ha":346,"x_min":38,"x_max":314,"o":"m 210 303 q 151 -157 164 -7 q 103 -164 121 -164 q 38 -108 38 -164 q 56 13 38 -100 q 101 292 75 126 q 142 563 128 457 q 200 1022 192 921 l 242 1029 q 314 975 314 1029 l 210 303 z "},":":{"ha":353,"x_min":44,"x_max":299,"o":"m 171 414 q 81 451 118 414 q 44 544 44 488 q 83 636 44 599 q 174 674 122 674 q 262 636 225 674 q 299 544 299 599 q 260 451 299 489 q 171 414 221 414 m 171 -14 q 81 23 118 -14 q 44 117 44 60 q 83 208 44 171 q 174 246 122 246 q 262 208 225 246 q 299 117 299 171 q 260 24 299 61 q 171 -14 221 -14 z "},";":{"ha":375,"x_min":25,"x_max":306,"o":"m 51 79 q 85 158 51 128 q 175 189 119 189 q 272 144 238 189 q 306 32 306 100 q 242 -146 306 -65 q 76 -226 178 -226 q 25 -172 25 -226 q 28 -143 25 -165 l 35 -143 q 100 -113 72 -143 q 128 -50 128 -83 q 65 17 128 7 q 51 79 51 46 m 176 414 q 87 451 124 414 q 50 544 50 488 q 89 636 50 599 q 179 674 128 674 q 267 636 231 674 q 304 544 304 599 q 265 451 304 489 q 176 414 226 414 z "},"<":{"ha":797,"x_min":154,"x_max":617,"o":"m 306 353 q 389 276 332 326 q 517 163 446 225 q 614 78 589 100 q 572 29 599 49 q 517 10 544 10 q 467 32 490 10 l 154 353 l 469 653 q 519 675 496 675 q 576 654 549 675 q 617 607 604 633 q 508 516 582 576 q 372 407 433 456 q 306 353 311 358 z "},"=":{"ha":797,"x_min":93,"x_max":704,"o":"m 704 229 q 685 170 704 194 q 633 146 665 146 q 525 153 610 146 q 399 161 440 161 q 99 146 242 161 q 93 204 93 175 q 110 262 93 236 q 164 288 128 288 q 258 281 169 288 q 413 274 347 274 q 697 288 601 274 q 704 229 704 260 m 704 501 q 685 442 704 467 q 633 418 665 418 q 525 426 610 418 q 399 433 440 433 q 99 418 242 433 q 93 476 93 447 q 110 534 93 508 q 164 560 128 560 q 258 553 169 560 q 413 546 347 546 q 697 560 601 546 q 704 501 704 532 z "},">":{"ha":797,"x_min":181,"x_max":643,"o":"m 492 353 q 425 407 486 358 q 290 516 364 456 q 181 607 215 576 q 221 654 193 633 q 278 675 249 675 q 328 653 301 675 l 643 353 l 331 32 q 281 10 307 10 q 226 29 253 10 q 183 78 199 49 q 280 163 208 100 q 408 276 351 225 q 492 353 465 326 z "},"?":{"ha":586,"x_min":36,"x_max":568,"o":"m 282 -14 q 193 21 229 -14 q 157 110 157 56 q 195 197 157 161 q 285 233 233 233 q 372 197 335 233 q 408 110 408 161 q 370 22 408 57 q 282 -14 332 -14 m 383 347 q 281 318 326 318 q 190 343 218 318 q 161 404 161 368 q 191 506 161 456 q 257 592 221 557 q 323 676 293 628 q 353 772 353 725 q 332 826 353 807 q 275 844 311 844 q 208 816 239 844 q 168 740 176 788 q 36 833 36 756 q 108 929 36 894 q 282 964 181 964 q 355 960 319 964 q 431 943 390 956 q 500 911 471 931 q 549 858 529 892 q 568 779 568 824 q 548 676 568 722 q 499 601 528 631 q 442 545 471 572 q 394 485 414 518 q 374 411 374 451 q 383 347 374 382 z "},"@":{"ha":1165,"x_min":81,"x_max":1083,"o":"m 460 75 q 355 126 396 75 q 314 272 314 176 q 397 515 314 414 q 599 615 479 615 q 835 551 736 615 q 785 239 785 351 q 819 163 785 163 q 889 236 856 163 q 922 431 922 310 q 853 640 922 565 q 639 714 783 714 q 421 642 518 714 q 274 467 324 571 q 225 254 225 363 q 252 114 225 174 q 326 22 279 54 q 424 -25 372 -10 q 533 -40 475 -40 q 673 -17 611 -40 q 746 42 735 7 q 818 -39 818 14 q 734 -119 818 -85 q 536 -153 650 -153 q 409 -140 471 -153 q 286 -98 347 -128 q 181 -24 225 -68 q 108 92 136 21 q 81 250 81 163 q 121 451 81 351 q 233 634 161 551 q 417 768 304 717 q 660 819 529 819 q 968 720 853 819 q 1083 468 1083 621 q 990 203 1083 310 q 761 96 897 96 q 625 203 656 96 q 460 75 558 75 m 615 283 q 631 385 621 313 q 644 474 642 457 q 582 492 614 492 q 514 440 540 492 q 488 301 488 388 q 501 234 488 261 q 538 207 514 207 q 615 283 582 207 z "},"A":{"ha":853,"x_min":6,"x_max":869,"o":"m 515 400 q 463 597 493 476 q 426 736 432 717 q 329 400 340 436 q 435 397 396 397 q 515 400 489 397 m 417 260 q 293 265 360 260 q 179 -25 199 38 q 108 -14 131 -18 q 57 1 86 -10 q 17 28 28 11 q 6 69 6 44 q 53 211 6 99 q 182 522 101 324 q 318 911 263 721 q 425 921 383 921 q 575 819 542 921 q 722 389 678 503 q 869 31 831 107 q 740 -14 804 -14 q 635 39 658 -14 q 594 142 619 75 q 546 263 568 208 q 417 260 438 260 z "},"B":{"ha":797,"x_min":63,"x_max":756,"o":"m 344 557 q 460 590 415 557 q 504 688 504 622 q 459 769 504 744 q 347 794 414 794 q 293 790 318 794 q 299 560 299 704 q 344 557 314 557 m 292 426 q 281 163 292 363 q 403 128 344 128 q 499 166 463 128 q 536 275 536 204 q 495 385 536 340 q 372 431 454 431 q 292 426 328 431 m 63 74 q 85 538 85 232 q 67 918 85 796 q 322 935 186 935 q 472 923 404 935 q 598 885 540 911 q 688 810 656 858 q 721 696 721 763 q 572 503 721 551 q 713 415 669 471 q 756 265 756 358 q 702 106 756 171 q 569 13 649 40 q 390 -14 489 -14 q 63 74 196 -14 z "},"C":{"ha":874,"x_min":44,"x_max":835,"o":"m 729 246 q 835 132 835 197 q 801 61 835 92 q 716 15 767 31 q 619 -7 665 0 q 536 -14 574 -14 q 364 10 446 -14 q 208 87 282 35 q 89 235 133 139 q 44 461 44 332 q 176 809 44 683 q 535 935 308 935 q 738 891 656 935 q 821 783 821 847 q 781 704 821 735 q 674 665 740 674 q 599 762 650 729 q 489 794 547 794 q 331 707 393 794 q 269 489 269 619 q 333 231 269 335 q 510 126 396 126 q 633 156 574 126 q 729 246 692 185 z "},"D":{"ha":915,"x_min":60,"x_max":871,"o":"m 60 74 q 81 540 78 201 q 63 918 81 783 q 304 935 158 935 q 523 911 425 935 q 701 835 621 888 q 826 689 782 783 q 871 463 871 594 q 746 120 871 254 q 390 -14 621 -14 q 60 74 178 -14 m 290 792 q 296 597 296 710 q 276 165 296 326 q 419 126 353 126 q 585 215 528 126 q 643 435 643 303 q 569 705 643 614 q 356 796 494 796 q 290 792 322 796 z "},"E":{"ha":739,"x_min":60,"x_max":711,"o":"m 288 779 q 293 565 293 735 l 403 565 q 567 574 492 565 q 575 515 575 556 q 551 444 575 464 q 467 424 528 424 l 293 424 q 304 142 293 189 q 403 139 365 139 q 694 171 629 139 q 711 75 711 129 q 674 13 711 28 q 528 -3 638 -3 q 143 0 196 -3 q 89 19 103 1 q 75 79 75 38 q 76 182 75 101 q 78 311 78 263 l 78 589 q 60 913 78 785 q 425 925 239 925 q 685 903 625 925 q 711 847 711 893 q 694 753 711 793 q 385 782 603 782 q 288 779 357 782 z "},"F":{"ha":711,"x_min":60,"x_max":711,"o":"m 288 779 q 293 551 293 735 l 403 551 q 567 560 492 551 q 575 501 575 542 q 551 430 575 450 q 467 410 528 410 l 293 410 l 293 282 q 326 15 293 121 q 274 3 314 10 q 211 -4 233 -4 q 103 24 131 -4 q 76 129 76 53 q 78 207 76 151 q 79 311 79 263 l 79 589 q 60 913 79 774 q 425 925 239 925 q 685 903 625 925 q 711 847 711 893 q 694 753 711 793 q 385 782 603 782 q 288 779 357 782 z "},"G":{"ha":896,"x_min":44,"x_max":850,"o":"m 842 128 q 754 28 842 69 q 532 -14 667 -14 q 176 113 308 -14 q 44 461 44 239 q 176 809 44 683 q 535 935 308 935 q 738 891 656 935 q 821 783 821 847 q 781 705 821 736 q 674 665 742 674 q 598 762 650 729 q 489 794 546 794 q 333 708 397 794 q 269 489 269 622 q 333 231 269 335 q 508 126 396 126 q 639 179 601 126 q 628 411 638 299 q 719 422 682 422 q 850 342 850 422 q 846 261 850 338 q 842 128 842 185 z "},"H":{"ha":925,"x_min":60,"x_max":865,"o":"m 618 571 l 618 599 q 606 914 618 751 q 715 925 658 925 q 805 907 768 925 q 842 850 842 889 q 837 738 842 843 q 832 561 832 632 l 832 282 q 865 15 832 126 q 739 -4 814 -4 q 693 -1 711 -4 q 655 13 675 3 q 625 49 635 24 q 615 115 615 75 q 617 215 615 142 q 618 321 618 288 l 618 435 q 456 432 565 432 q 286 435 342 432 l 286 282 q 319 15 286 126 q 193 -4 268 -4 q 147 -1 165 -4 q 109 13 129 3 q 79 49 89 24 q 69 115 69 75 q 71 215 69 142 q 72 321 72 288 l 72 599 q 60 914 72 751 q 169 925 113 925 q 259 907 222 925 q 296 850 296 889 q 291 742 296 843 q 286 571 286 640 q 456 568 339 568 q 618 571 567 568 z "},"I":{"ha":358,"x_min":60,"x_max":319,"o":"m 72 321 l 72 599 q 60 914 72 751 q 169 925 113 925 q 259 906 222 925 q 296 849 296 888 q 291 737 296 842 q 286 561 286 632 l 286 282 q 319 15 286 126 q 193 -4 268 -4 q 147 -1 165 -4 q 109 13 129 3 q 79 49 89 24 q 69 115 69 75 q 71 215 69 142 q 72 321 72 288 z "},"J":{"ha":403,"x_min":-35,"x_max":343,"o":"m 78 -165 q -3 -131 22 -165 q -35 -31 -29 -96 q 93 35 65 -14 q 121 189 121 85 q 120 372 121 218 q 119 599 119 525 q 107 914 119 751 q 215 925 174 925 q 308 906 272 925 q 343 850 343 886 q 338 743 343 849 q 333 563 333 638 l 333 149 q 312 17 333 75 q 260 -75 290 -42 q 192 -130 229 -108 q 126 -158 154 -151 q 78 -165 99 -165 z "},"K":{"ha":853,"x_min":60,"x_max":853,"o":"m 72 321 l 72 599 q 60 914 72 751 q 169 925 113 925 q 259 907 222 925 q 296 850 296 889 q 291 738 296 843 q 286 561 286 632 q 508 746 399 640 q 651 935 618 851 q 739 891 717 914 q 761 836 761 868 q 474 535 761 744 q 718 183 633 285 q 803 132 763 132 q 840 136 807 132 q 853 74 853 99 q 812 8 853 29 q 713 -14 771 -14 q 561 57 636 -14 q 310 422 463 150 q 286 407 307 421 l 286 282 q 319 15 286 126 q 193 -4 268 -4 q 147 -1 165 -4 q 109 13 129 3 q 79 49 89 24 q 69 115 69 75 q 71 215 69 142 q 72 321 72 288 z "},"L":{"ha":706,"x_min":60,"x_max":706,"o":"m 72 311 l 72 599 q 60 914 72 751 q 169 925 113 925 q 259 907 222 925 q 296 850 296 889 q 291 740 296 843 q 286 565 286 636 l 286 293 q 297 142 286 186 q 397 139 358 139 q 689 171 624 139 q 706 75 706 129 q 669 13 706 28 q 522 -3 632 -3 q 138 0 190 -3 q 83 19 97 1 q 69 79 69 38 q 71 205 69 126 q 72 311 72 283 z "},"M":{"ha":1140,"x_min":60,"x_max":1081,"o":"m 1054 606 l 1054 282 q 1081 14 1054 101 q 961 -4 1008 -4 q 836 100 836 -4 q 837 176 836 117 q 838 352 838 236 q 839 576 839 468 q 674 11 715 228 q 579 -3 635 -3 q 444 49 465 -3 q 363 303 418 113 q 272 583 307 494 l 272 282 q 299 7 272 94 q 201 -4 249 -4 q 83 75 83 -4 q 85 185 83 97 q 86 321 86 272 l 86 671 q 60 915 86 826 q 199 928 147 928 q 363 844 325 928 q 444 630 404 751 q 505 431 483 508 q 572 185 526 354 q 790 860 650 554 q 849 913 808 899 q 954 926 889 926 q 1079 915 1028 926 q 1054 606 1054 832 z "},"N":{"ha":921,"x_min":60,"x_max":846,"o":"m 844 6 q 758 -4 800 -4 q 599 61 640 -4 q 475 269 544 146 q 285 599 347 499 l 285 282 q 314 14 285 106 q 210 -4 274 -4 q 111 16 140 -4 q 82 92 82 36 q 84 193 82 114 q 86 321 86 272 l 86 599 q 60 907 86 822 q 181 926 126 926 q 331 865 281 926 q 635 382 432 739 l 633 599 q 624 915 633 789 q 710 925 682 925 q 846 844 846 925 q 840 727 846 839 q 835 561 835 615 l 835 324 q 844 6 835 132 z "},"O":{"ha":1011,"x_min":44,"x_max":967,"o":"m 504 -14 q 169 115 294 -14 q 44 460 44 244 q 169 806 44 678 q 504 935 293 935 q 842 806 717 935 q 967 460 967 678 q 841 115 967 244 q 504 -14 715 -14 m 739 435 q 717 604 739 526 q 641 738 696 682 q 506 794 586 794 q 333 713 397 794 q 269 503 269 631 q 291 324 269 406 q 367 185 313 243 q 503 126 422 126 q 677 212 615 126 q 739 435 739 297 z "},"P":{"ha":749,"x_min":60,"x_max":729,"o":"m 376 450 q 469 497 436 450 q 503 625 503 544 q 461 758 503 721 q 332 794 419 794 q 288 789 315 794 q 293 567 293 725 l 293 471 q 376 450 338 450 m 79 321 l 79 599 q 60 918 79 793 q 299 935 179 935 q 729 635 729 935 q 642 400 729 486 q 433 314 556 314 q 293 356 361 314 l 293 263 q 326 15 293 121 q 196 -4 283 -4 q 101 26 125 -4 q 76 115 76 57 q 78 205 76 138 q 79 321 79 272 z "},"Q":{"ha":1011,"x_min":44,"x_max":967,"o":"m 739 435 q 717 604 739 526 q 641 738 696 682 q 506 794 586 794 q 333 713 397 794 q 269 503 269 631 q 291 324 269 406 q 367 185 313 243 q 503 126 422 126 q 677 212 615 126 q 739 435 739 297 m 747 -233 q 534 -176 629 -233 q 419 -7 439 -119 q 144 142 244 18 q 44 460 44 267 q 169 806 44 678 q 504 935 293 935 q 842 806 717 935 q 967 460 967 678 q 861 138 967 264 q 575 -10 756 13 q 713 -92 601 -92 q 810 -72 763 -92 q 883 -19 858 -53 q 934 -69 914 -39 q 954 -131 954 -100 q 894 -205 954 -176 q 747 -233 833 -233 z "},"R":{"ha":807,"x_min":60,"x_max":803,"o":"m 679 165 q 751 132 708 132 q 790 136 769 132 q 803 74 803 101 q 758 6 803 26 q 654 -14 713 -14 q 533 33 579 -14 q 353 378 446 122 q 326 418 326 388 q 342 482 326 446 q 378 478 357 478 q 471 526 439 478 q 503 651 503 574 q 463 762 503 731 q 339 793 422 793 q 286 790 317 793 q 290 525 290 735 l 290 276 q 324 15 290 119 q 193 -4 272 -4 q 99 26 124 -4 q 74 115 74 56 q 75 205 74 138 q 76 321 76 272 l 76 599 q 60 918 76 785 q 299 935 179 935 q 728 644 728 935 q 560 390 728 456 q 679 165 628 224 z "},"S":{"ha":760,"x_min":40,"x_max":718,"o":"m 582 692 q 500 762 560 732 q 385 792 440 792 q 310 767 339 792 q 282 693 282 743 q 315 618 282 649 q 395 573 347 588 q 500 536 443 558 q 605 489 557 514 q 685 411 653 464 q 718 283 718 358 q 687 142 718 201 q 601 49 656 82 q 485 1 547 17 q 353 -14 424 -14 q 133 22 225 -14 q 40 117 40 58 q 64 186 40 160 q 144 243 88 213 q 249 162 179 194 q 383 129 318 129 q 474 156 439 129 q 508 238 508 182 q 463 322 508 290 q 354 374 418 354 q 226 420 290 393 q 117 510 163 447 q 72 671 72 572 q 103 794 72 742 q 185 877 133 847 q 299 921 238 907 q 433 935 361 935 q 629 901 547 935 q 711 808 711 868 q 677 740 711 772 q 582 692 643 708 z "},"T":{"ha":757,"x_min":0,"x_max":757,"o":"m 272 303 l 272 560 q 268 781 272 681 q 7 772 90 781 q 0 840 0 793 q 10 883 0 867 q 41 907 19 900 q 82 916 63 914 q 135 918 101 918 l 433 918 q 750 924 667 918 q 757 860 757 893 q 651 781 757 781 l 493 781 q 486 524 486 649 l 486 264 q 519 15 486 124 q 386 -4 458 -4 q 294 26 319 -4 q 269 115 269 56 q 271 197 269 136 q 272 303 272 258 z "},"U":{"ha":946,"x_min":65,"x_max":886,"o":"m 635 107 q 501 18 576 50 q 358 -14 425 -14 q 152 48 228 -14 q 76 267 76 110 q 83 489 76 349 q 89 696 89 629 q 65 906 89 826 q 178 925 117 925 q 283 894 253 925 q 314 781 314 864 q 305 566 314 750 q 296 275 296 382 q 335 167 296 204 q 426 131 375 131 q 540 162 479 131 q 638 235 600 193 q 638 280 638 244 q 639 401 639 315 q 639 619 639 486 q 626 914 639 761 q 735 925 679 925 q 829 905 796 925 q 863 850 863 885 l 858 742 q 853 508 853 632 l 853 360 q 860 144 853 211 q 886 15 867 78 q 760 -4 835 -4 q 667 19 692 -4 q 635 107 642 43 z "},"V":{"ha":868,"x_min":-18,"x_max":858,"o":"m 624 919 q 731 935 682 935 q 858 849 858 935 q 767 470 858 715 q 582 97 675 225 q 393 -4 508 -4 q 292 6 332 -4 q 155 483 247 225 q -18 847 63 742 q 139 925 67 925 q 217 879 189 925 q 425 160 315 714 q 563 480 493 272 q 632 838 632 688 q 624 919 632 882 z "},"W":{"ha":1393,"x_min":-18,"x_max":1375,"o":"m 578 919 q 685 935 636 935 q 813 849 813 935 q 801 743 813 806 q 964 160 888 592 q 1087 480 1025 272 q 1149 838 1149 688 q 1140 919 1149 882 q 1247 935 1199 935 q 1375 849 1375 935 q 1288 470 1375 715 q 1113 97 1201 225 q 935 -4 1043 -4 q 838 6 876 -4 q 726 475 782 288 q 550 97 640 228 q 372 -4 481 -4 q 275 6 314 -4 q 146 484 233 226 q -18 847 58 742 q 139 925 67 925 q 217 879 189 925 q 316 574 265 786 q 401 160 367 361 q 524 480 463 272 q 586 838 586 688 q 578 919 586 882 z "},"X":{"ha":890,"x_min":22,"x_max":885,"o":"m 25 90 q 48 152 25 114 q 111 237 71 190 q 188 323 151 283 q 272 410 225 363 q 338 479 319 458 q 173 695 261 603 q 22 828 85 788 q 190 935 110 935 q 270 914 238 935 q 331 844 303 893 q 454 589 401 719 q 606 935 592 818 q 807 831 807 913 q 791 783 807 813 q 742 711 775 753 q 683 638 710 669 q 610 554 657 607 q 546 481 564 501 q 724 235 628 342 q 885 88 819 128 q 708 -14 801 -14 q 599 53 633 -14 q 431 367 450 326 q 301 178 364 290 q 225 -14 239 67 q 84 19 143 -7 q 25 90 25 44 z "},"Y":{"ha":785,"x_min":-10,"x_max":779,"o":"m 414 543 q 520 753 463 618 q 579 935 578 889 q 779 831 779 914 q 770 797 779 818 q 741 743 761 775 q 703 684 721 711 q 652 613 685 657 q 603 546 619 568 q 550 476 586 524 q 506 418 514 429 l 506 282 q 539 15 506 126 q 413 -4 488 -4 q 367 -1 385 -4 q 328 13 349 3 q 299 49 308 24 q 289 115 289 75 q 290 215 289 142 q 292 321 292 288 l 292 408 q -10 833 89 790 q 139 929 61 929 q 267 842 217 929 q 414 543 310 764 z "},"Z":{"ha":788,"x_min":24,"x_max":769,"o":"m 746 900 q 769 847 769 876 q 739 772 769 815 q 428 356 550 517 q 278 161 306 194 l 250 129 q 347 131 313 129 q 725 175 579 139 q 751 74 751 115 q 640 0 751 10 q 401 -8 549 -8 q 49 8 186 -8 q 24 72 24 39 q 60 161 24 108 q 522 788 453 710 q 413 786 456 788 q 81 749 201 778 q 51 849 51 810 q 64 889 51 869 q 100 913 76 908 q 315 926 161 926 q 746 900 578 926 z "},"[":{"ha":525,"x_min":135,"x_max":489,"o":"m 317 889 l 317 -151 q 428 -149 369 -149 q 476 -165 463 -149 q 489 -218 489 -182 q 483 -264 489 -242 l 135 -264 l 135 1000 l 483 1000 q 489 954 489 983 q 474 901 489 915 q 428 886 460 886 q 317 889 368 886 z "},"\\":{"ha":346,"x_min":42,"x_max":318,"o":"m 146 303 q 42 975 42 946 q 114 1029 42 1029 q 156 1022 138 1029 q 214 563 164 921 q 247 342 221 510 q 295 31 272 175 q 318 -108 318 -112 q 253 -164 318 -164 q 204 -157 235 -164 q 146 303 192 -7 z "},"]":{"ha":497,"x_min":26,"x_max":381,"o":"m 199 -151 l 199 889 q 88 886 147 886 q 41 901 56 886 q 26 954 26 915 q 32 1000 26 983 l 381 1000 l 381 -264 l 32 -264 q 26 -218 26 -242 q 40 -165 26 -182 q 88 -149 53 -149 q 199 -151 146 -149 z "},"^":{"ha":738,"x_min":22,"x_max":715,"o":"m 371 754 q 325 706 361 744 q 266 643 289 667 q 210 589 243 619 q 150 543 176 558 q 104 528 124 528 q 22 574 68 528 q 178 752 61 632 q 369 938 296 872 q 560 751 444 869 q 715 574 676 632 q 635 528 669 528 q 605 537 622 528 q 566 563 588 546 q 524 598 544 581 q 479 641 504 615 q 438 683 454 667 q 399 724 421 700 q 371 754 376 747 z "},"_":{"ha":743,"x_min":0,"x_max":743,"o":"m 743 -153 q 729 -194 743 -178 q 693 -211 715 -211 q 597 -206 672 -211 q 483 -200 522 -200 l 285 -200 q 4 -211 126 -200 q 0 -169 0 -190 q 13 -129 0 -147 q 50 -111 25 -111 q 138 -116 54 -111 q 282 -121 221 -121 l 479 -121 q 739 -111 656 -121 q 743 -153 743 -124 z "},"`":{"ha":374,"x_min":-46,"x_max":318,"o":"m 47 1049 q 125 975 75 1013 q 215 913 175 938 q 287 859 256 889 q 318 803 318 829 q 264 726 318 765 q 127 808 213 764 q -2 883 42 851 q -46 950 -46 914 q 47 1049 -46 1004 z "},"a":{"ha":686,"x_min":40,"x_max":636,"o":"m 178 436 q 56 540 56 458 q 135 635 56 596 q 328 674 215 674 q 543 618 474 674 q 613 433 613 563 q 611 351 613 422 q 610 246 610 281 q 636 7 610 86 q 528 -10 575 -10 q 411 71 428 -10 q 326 9 378 32 q 221 -14 274 -14 q 92 35 144 -14 q 40 182 40 85 q 72 296 40 260 q 157 350 103 332 q 407 392 263 383 q 388 510 407 476 q 310 544 369 544 q 235 515 275 544 q 178 436 196 486 m 406 292 q 342 279 364 285 q 294 262 319 274 q 258 231 268 250 q 247 185 247 213 q 264 133 247 150 q 306 115 281 115 q 403 150 364 115 q 401 192 401 163 q 406 292 401 242 z "},"b":{"ha":756,"x_min":54,"x_max":721,"o":"m 286 597 q 460 672 367 672 q 653 581 585 672 q 721 347 721 490 q 633 90 721 194 q 382 -14 546 -14 q 76 81 204 -14 q 86 379 86 164 q 78 789 86 558 q 54 1014 71 960 q 171 1032 119 1032 q 290 942 290 1032 q 288 740 290 940 q 287 657 288 704 q 286 597 286 610 m 289 486 q 290 405 289 471 q 290 300 290 339 q 285 149 290 193 q 392 119 343 119 q 515 333 515 119 q 512 393 515 364 q 499 459 508 422 q 468 518 490 496 q 414 540 446 540 q 289 486 360 540 z "},"c":{"ha":663,"x_min":40,"x_max":626,"o":"m 390 118 q 472 140 433 118 q 524 199 510 161 q 606 156 586 176 q 625 106 625 135 q 558 17 625 49 q 385 -14 492 -14 q 135 73 229 -14 q 40 315 40 160 q 72 478 40 407 q 153 590 103 549 q 261 653 203 632 q 379 674 319 674 q 547 638 467 674 q 626 538 626 601 q 490 436 626 453 q 446 511 478 483 q 375 539 414 539 q 286 487 324 539 q 249 333 249 435 q 390 118 249 118 z "},"d":{"ha":756,"x_min":40,"x_max":701,"o":"m 40 329 q 119 573 40 472 q 317 674 199 674 q 474 626 394 674 q 476 767 476 715 q 465 1014 476 918 q 558 1032 529 1032 q 688 943 688 1032 q 681 628 688 861 q 675 310 675 394 q 701 7 675 90 q 593 -10 635 -10 q 510 12 535 -10 q 476 71 485 33 q 392 10 440 33 q 301 -14 344 -14 q 117 83 194 -14 q 40 329 40 181 m 468 511 q 382 542 426 542 q 283 487 319 542 q 247 342 247 432 q 283 177 247 242 q 372 113 319 113 q 471 154 433 113 q 468 511 468 440 z "},"e":{"ha":683,"x_min":40,"x_max":643,"o":"m 390 674 q 568 622 493 674 q 643 469 643 571 q 349 264 643 264 q 253 267 322 264 q 292 151 253 188 q 390 115 332 115 q 550 182 493 115 q 602 141 582 167 q 622 89 622 115 q 573 22 622 47 q 477 -8 524 -3 q 388 -14 431 -14 q 138 70 235 -14 q 40 326 40 154 q 94 522 40 440 q 224 638 147 603 q 390 674 301 674 m 379 542 q 292 497 329 542 q 253 364 254 451 q 308 369 292 367 q 353 378 324 371 q 397 397 383 385 q 421 430 410 408 q 432 483 432 451 q 417 524 432 506 q 379 542 401 542 z "},"f":{"ha":538,"x_min":4,"x_max":569,"o":"m 569 921 q 521 824 569 875 q 425 860 486 860 q 341 824 363 860 q 319 710 319 788 l 319 657 q 503 668 443 660 q 513 611 513 649 q 487 548 513 565 q 410 529 461 531 q 319 528 344 528 l 319 260 q 344 7 319 89 q 243 -4 297 -4 q 142 13 169 -4 q 114 68 114 29 q 115 242 114 83 q 117 526 117 400 q 15 518 90 526 q 4 581 4 547 q 117 658 4 658 q 123 766 117 721 q 147 856 129 811 q 197 930 165 901 q 283 976 229 958 q 411 993 336 993 q 569 921 569 993 z "},"g":{"ha":828,"x_min":32,"x_max":810,"o":"m 364 138 q 304 140 340 138 q 290 86 290 103 q 382 58 290 58 l 543 58 q 689 16 629 58 q 749 -117 749 -26 q 629 -285 749 -221 q 342 -350 510 -350 q 110 -303 188 -350 q 32 -186 32 -256 q 115 -50 32 -131 q 83 13 83 -28 q 115 83 83 35 q 188 174 146 132 q 82 269 119 207 q 44 411 44 331 q 135 599 44 524 q 364 674 226 674 q 579 611 490 674 q 725 693 647 693 q 786 671 763 693 q 810 608 810 649 q 796 538 810 579 q 756 542 775 542 q 660 519 708 542 q 683 411 683 469 q 590 211 683 285 q 364 138 496 138 m 476 399 q 446 500 476 460 q 363 540 415 540 q 253 424 253 540 q 282 315 253 358 q 363 271 311 271 q 450 302 424 271 q 476 399 476 333 m 439 -86 l 253 -86 q 240 -149 240 -119 q 364 -217 240 -217 q 501 -192 454 -217 q 547 -133 547 -168 q 439 -86 547 -86 z "},"h":{"ha":757,"x_min":54,"x_max":703,"o":"m 167 1032 q 249 1014 219 1032 q 278 943 278 996 q 273 821 278 935 q 268 650 268 707 l 268 589 q 467 672 356 672 q 622 618 561 672 q 683 464 683 564 q 681 364 683 461 q 679 217 679 267 q 703 14 679 97 q 582 -4 643 -4 q 471 81 471 -4 q 475 265 471 131 q 479 426 479 399 q 456 512 479 483 q 397 540 433 540 q 268 472 339 540 q 271 215 271 294 q 278 1 271 93 q 196 -3 232 -3 q 57 64 57 -3 q 60 160 57 69 q 64 350 64 251 l 64 689 q 54 1014 64 888 q 167 1032 107 1032 z "},"i":{"ha":357,"x_min":51,"x_max":306,"o":"m 178 722 q 88 759 125 722 q 51 853 51 796 q 90 944 51 907 q 181 982 129 982 q 269 944 232 982 q 306 853 306 907 q 267 760 306 797 q 178 722 228 722 m 181 664 q 263 646 233 664 q 292 575 292 628 q 287 453 292 567 q 282 282 282 339 q 306 14 282 85 q 190 -4 247 -4 q 99 19 125 -4 q 74 86 74 42 q 76 190 74 108 q 78 321 78 272 q 68 646 78 519 q 181 664 121 664 z "},"j":{"ha":394,"x_min":-181,"x_max":340,"o":"m 214 664 q 298 644 271 664 q 325 578 325 624 q 322 518 325 571 q 317 392 319 465 q 315 264 315 319 q 318 101 315 222 q 321 -100 321 -19 q 244 -287 321 -222 q 22 -351 167 -351 q -117 -328 -53 -351 q -181 -261 -181 -306 q -169 -216 -181 -236 q -122 -165 -157 -196 q -66 -205 -106 -187 q 13 -222 -26 -222 q 87 -196 58 -222 q 115 -110 115 -169 q 115 -36 115 -101 q 113 129 114 29 q 111 321 111 229 q 101 646 111 519 q 214 664 151 664 m 213 722 q 123 759 160 722 q 86 853 86 796 q 125 944 86 907 q 215 982 164 982 q 303 944 267 982 q 340 853 340 907 q 301 760 340 797 q 213 722 263 722 z "},"k":{"ha":776,"x_min":54,"x_max":751,"o":"m 268 560 q 508 671 385 671 q 632 622 581 671 q 683 497 683 572 q 636 361 683 424 q 500 285 589 299 q 582 149 554 181 q 657 114 611 114 q 733 126 689 114 q 751 63 751 90 q 706 6 751 26 q 611 -14 660 -14 q 526 -4 557 -14 q 465 36 496 6 q 331 275 407 97 q 300 313 300 282 q 315 371 300 331 q 369 365 343 365 q 455 397 425 365 q 485 468 485 428 q 467 520 485 501 q 421 539 450 539 q 268 449 358 539 l 268 340 q 278 15 268 142 q 165 -3 225 -3 q 83 15 113 -3 q 54 86 54 33 q 59 208 54 94 q 64 379 64 322 l 64 689 q 54 1014 64 888 q 167 1032 107 1032 q 249 1014 219 1032 q 278 943 278 996 q 275 876 278 933 q 270 731 272 819 q 268 560 268 643 z "},"l":{"ha":346,"x_min":54,"x_max":292,"o":"m 167 1032 q 249 1014 219 1032 q 278 943 278 996 q 273 821 278 935 q 268 650 268 707 l 268 269 q 292 14 268 86 q 176 -4 233 -4 q 85 19 111 -4 q 60 86 60 42 q 62 183 60 108 q 64 306 64 258 l 64 689 q 54 1014 64 888 q 167 1032 107 1032 z "},"m":{"ha":1133,"x_min":54,"x_max":1079,"o":"m 54 646 q 163 664 111 664 q 278 582 264 664 q 469 672 363 672 q 651 565 603 672 q 857 672 738 672 q 1003 618 946 672 q 1060 464 1060 564 q 1058 364 1060 461 q 1056 217 1056 267 q 1079 14 1056 97 q 958 -4 1019 -4 q 847 81 847 -4 q 851 265 847 131 q 856 426 856 399 q 836 512 856 483 q 785 540 817 540 q 672 472 733 540 q 675 215 675 294 q 682 1 675 93 q 600 -3 636 -3 q 461 64 461 -3 q 465 165 461 71 q 468 351 468 260 l 468 429 q 448 513 468 486 q 397 540 428 540 q 285 472 346 540 q 288 215 288 294 q 294 1 288 93 q 213 -3 249 -3 q 74 64 74 -3 q 77 161 74 69 q 81 351 81 253 q 54 646 81 578 z "},"n":{"ha":774,"x_min":54,"x_max":719,"o":"m 54 646 q 163 664 111 664 q 278 582 264 664 q 483 672 368 672 q 639 618 578 672 q 700 464 700 564 q 698 364 700 461 q 696 217 696 267 q 719 14 696 97 q 599 -4 660 -4 q 488 81 488 -4 q 492 265 488 131 q 496 426 496 399 q 473 512 496 483 q 414 540 450 540 q 285 472 356 540 q 288 215 288 294 q 294 1 288 93 q 213 -3 249 -3 q 74 64 74 -3 q 77 161 74 69 q 81 351 81 253 q 54 646 81 578 z "},"o":{"ha":754,"x_min":40,"x_max":714,"o":"m 621 78 q 574 32 621 78 q 376 -14 528 -14 q 133 78 225 -14 q 40 322 40 169 q 133 578 40 482 q 376 674 225 674 q 621 578 528 674 q 714 322 714 482 q 621 78 714 169 m 507 294 q 472 470 507 400 q 376 540 438 540 q 283 483 317 540 q 249 333 249 426 q 283 181 249 242 q 376 121 317 121 q 473 169 439 121 q 507 294 507 217 z "},"p":{"ha":758,"x_min":54,"x_max":718,"o":"m 54 639 q 164 664 104 664 q 215 659 194 664 q 256 631 236 654 q 278 567 275 608 q 358 647 308 619 q 464 674 407 674 q 651 585 583 674 q 718 360 718 497 q 691 186 718 268 q 599 45 664 104 q 440 -14 533 -14 q 283 47 349 -14 q 284 -28 283 39 q 285 -120 285 -94 q 289 -197 286 -146 q 297 -281 292 -247 q 311 -340 303 -315 q 206 -351 264 -351 q 104 -333 131 -351 q 78 -272 78 -315 q 80 65 78 -136 q 82 346 82 267 q 54 639 82 567 m 286 150 q 397 118 332 118 q 480 184 453 118 q 507 339 507 250 q 481 491 507 442 q 413 540 454 540 q 285 471 342 540 q 286 150 286 351 z "},"q":{"ha":760,"x_min":40,"x_max":706,"o":"m 475 68 q 307 -14 406 -14 q 113 90 193 -14 q 40 321 40 185 q 137 578 40 483 q 376 674 233 674 q 703 565 565 674 q 681 -11 681 328 q 706 -333 681 -262 q 588 -351 649 -351 q 469 -264 469 -351 q 472 -81 469 -194 q 475 68 475 33 m 478 181 q 494 503 481 349 q 382 539 431 539 q 285 490 321 539 q 250 349 250 440 q 285 183 250 246 q 372 121 321 121 q 478 181 426 121 z "},"r":{"ha":563,"x_min":54,"x_max":556,"o":"m 167 664 q 249 646 219 664 q 278 575 278 628 l 278 557 q 367 638 315 601 q 471 674 419 674 q 533 655 511 674 q 556 606 556 636 q 506 494 556 549 q 415 525 457 525 q 272 440 354 525 q 268 282 268 358 q 292 14 268 85 q 176 -4 233 -4 q 85 19 111 -4 q 60 86 60 42 q 62 190 60 108 q 64 321 64 272 q 54 646 64 519 q 167 664 107 664 z "},"s":{"ha":606,"x_min":36,"x_max":568,"o":"m 428 450 q 389 517 417 493 q 328 540 361 540 q 274 524 296 540 q 251 475 251 507 q 284 422 251 442 q 363 391 317 403 q 456 362 410 379 q 535 304 503 344 q 568 201 568 264 q 484 41 568 96 q 286 -14 400 -14 q 215 -10 250 -14 q 135 3 181 -7 q 63 40 90 14 q 36 103 36 65 q 149 219 36 178 q 201 144 163 169 q 283 119 240 119 q 376 186 376 119 q 327 238 376 218 q 219 272 278 258 q 112 331 161 285 q 63 456 63 378 q 147 614 63 554 q 336 674 231 674 q 434 663 385 674 q 524 623 483 653 q 564 550 564 593 q 530 485 564 513 q 428 450 496 458 z "},"t":{"ha":594,"x_min":0,"x_max":581,"o":"m 135 251 l 135 529 q 11 519 63 528 q 0 578 0 550 q 113 660 0 660 l 132 660 q 124 801 129 744 q 225 819 168 819 q 284 816 263 819 q 326 793 306 813 q 346 736 346 774 q 342 658 346 714 q 571 669 486 658 q 581 610 581 650 q 499 532 581 536 q 339 529 446 529 q 335 254 335 392 q 336 203 335 221 q 344 161 338 186 q 366 125 350 136 q 407 114 382 114 q 518 156 476 114 q 575 74 575 115 q 527 10 575 35 q 413 -14 479 -14 q 198 53 261 -14 q 135 251 135 119 z "},"u":{"ha":768,"x_min":54,"x_max":714,"o":"m 714 14 q 597 -4 646 -4 q 522 16 553 -4 q 488 75 490 36 q 268 -14 386 -14 q 72 182 72 -14 q 74 283 72 186 q 76 429 76 381 q 54 646 76 574 q 167 664 108 664 q 286 579 286 664 q 282 408 286 533 q 278 258 278 283 q 299 156 278 192 q 353 119 321 119 q 485 185 424 119 q 483 353 483 239 q 474 646 483 514 q 581 664 529 664 q 667 647 636 664 q 697 578 697 631 q 694 493 697 564 q 689 382 690 422 l 689 282 q 714 14 689 106 z "},"v":{"ha":688,"x_min":-14,"x_max":657,"o":"m 546 674 q 630 656 603 674 q 657 597 657 639 q 594 339 657 517 q 465 74 531 161 q 301 -4 410 -4 q 210 8 258 -4 q 106 358 179 161 q -14 608 33 556 q 119 667 50 667 q 231 583 194 667 q 356 201 300 413 q 454 610 454 461 q 450 653 454 632 q 546 674 494 674 z "},"w":{"ha":1060,"x_min":-14,"x_max":1029,"o":"m 510 674 q 594 656 567 674 q 622 597 622 639 q 617 544 622 572 q 742 201 708 363 q 825 610 825 457 q 821 653 825 632 q 917 674 867 674 q 1001 656 974 674 q 1029 597 1029 639 q 969 340 1029 517 q 847 74 908 163 q 692 -4 796 -4 q 606 8 649 -4 q 542 286 579 139 q 440 74 493 151 q 285 -4 389 -4 q 199 8 242 -4 q 100 359 168 163 q -14 608 32 556 q 119 667 50 667 q 231 583 194 667 q 335 201 293 394 q 418 610 418 457 q 414 653 418 632 q 510 674 458 674 z "},"x":{"ha":664,"x_min":22,"x_max":651,"o":"m 428 674 q 603 590 603 664 q 425 324 603 521 q 651 69 519 161 q 611 24 625 38 q 572 -2 597 10 q 517 -14 547 -14 q 414 43 451 -14 q 311 235 367 117 q 289 201 308 231 q 264 163 269 172 q 243 126 258 153 q 221 82 228 100 q 206 38 214 64 q 194 -14 199 13 q 33 64 33 -11 q 60 139 33 94 q 115 215 88 183 q 188 294 142 246 q 242 349 235 342 q 128 498 189 435 q 22 590 68 561 q 161 674 78 674 q 257 622 224 674 q 351 438 304 549 q 428 674 425 574 z "},"y":{"ha":704,"x_min":0,"x_max":676,"o":"m 572 674 q 676 604 676 674 q 627 383 676 539 q 510 82 578 226 q 300 -285 413 -122 q 203 -347 258 -347 q 67 -262 132 -347 q 283 -17 183 -175 q 0 596 96 503 q 156 667 90 667 q 206 653 188 667 q 239 608 225 639 q 306 408 261 560 q 375 143 350 257 q 444 393 413 257 q 475 589 475 529 q 471 653 475 622 q 572 674 518 674 z "},"z":{"ha":686,"x_min":22,"x_max":632,"o":"m 528 1 q 325 -8 450 -8 q 46 8 157 -8 q 22 79 22 38 q 53 151 22 121 l 415 529 q 353 532 374 532 q 63 488 210 532 q 50 574 50 532 q 93 638 53 622 q 249 654 133 654 q 610 626 464 654 q 632 563 632 604 q 608 499 632 522 l 240 110 l 250 110 q 596 165 390 110 q 613 83 613 124 q 599 36 613 54 q 571 13 586 18 q 528 1 556 7 z "},"{":{"ha":567,"x_min":63,"x_max":521,"o":"m 239 397 q 312 341 276 385 q 347 251 347 297 l 347 3 q 351 -47 347 -32 q 378 -71 356 -61 q 453 -81 401 -81 q 503 -95 488 -81 q 519 -150 519 -110 q 514 -196 519 -179 q 464 -197 496 -197 q 235 -159 304 -197 q 165 -43 165 -121 l 165 247 q 140 326 165 289 q 63 363 114 363 l 63 432 q 141 469 114 432 q 168 549 168 507 l 168 839 q 237 955 168 917 q 465 993 306 993 q 515 992 497 993 q 521 946 521 975 q 505 891 521 906 q 454 876 489 876 q 365 860 382 876 q 347 793 347 843 l 347 546 q 312 453 347 497 q 239 397 276 410 z "},"|":{"ha":799,"x_min":322,"x_max":476,"o":"m 339 419 l 339 443 q 322 1017 339 908 q 382 1024 354 1024 q 474 947 474 1024 q 470 842 474 940 q 463 581 467 743 q 460 258 460 419 l 460 235 q 476 -339 460 -231 q 417 -346 444 -346 q 325 -269 325 -346 q 328 -164 325 -262 q 335 97 332 -65 q 339 419 339 258 z "},"}":{"ha":547,"x_min":26,"x_max":485,"o":"m 308 397 q 235 453 271 410 q 200 546 200 497 l 200 793 q 195 842 200 828 q 167 867 190 857 q 93 876 144 876 q 42 891 58 876 q 26 946 26 906 q 32 992 26 975 q 82 993 50 993 q 310 955 242 993 q 379 839 379 917 l 379 549 q 406 469 379 507 q 485 432 433 432 l 485 363 q 408 326 433 363 q 382 247 382 289 l 382 -43 q 313 -159 382 -121 q 83 -197 243 -197 q 33 -196 51 -197 q 28 -150 28 -179 q 44 -95 28 -110 q 94 -81 60 -81 q 169 -71 146 -81 q 196 -47 192 -61 q 200 3 200 -32 l 200 251 q 235 341 200 297 q 308 397 271 385 z "},"~":{"ha":831,"x_min":36,"x_max":794,"o":"m 36 371 q 214 485 36 485 q 412 457 290 485 q 592 429 533 429 q 747 478 693 429 q 794 382 794 428 q 731 296 794 324 q 582 268 668 268 q 418 296 533 268 q 240 324 303 324 q 83 275 138 324 q 36 371 36 325 z "},"¡":{"ha":438,"x_min":81,"x_max":347,"o":"m 207 674 q 296 639 260 674 q 332 550 332 604 q 294 463 332 499 q 204 426 256 426 q 117 463 154 426 q 81 550 81 499 q 119 638 81 603 q 207 674 157 674 m 99 -200 q 110 -52 99 -157 q 121 111 121 53 q 103 315 121 267 q 206 342 156 342 q 287 319 254 342 q 319 256 319 297 q 319 204 319 244 q 318 135 318 164 q 347 -289 318 -186 q 217 -304 283 -304 q 99 -200 99 -304 z "},"¢":{"ha":797,"x_min":83,"x_max":753,"o":"m 753 210 q 671 122 753 154 q 496 86 589 90 q 504 -18 499 29 l 474 -22 q 414 32 418 -22 l 414 90 q 175 203 267 107 q 83 454 83 299 q 174 699 83 604 q 414 815 264 794 q 406 943 411 885 q 440 950 429 950 q 493 896 493 950 l 493 821 q 600 807 543 819 q 705 765 657 794 q 753 694 753 735 q 719 631 753 660 q 626 593 685 603 q 493 688 569 682 l 494 218 q 628 315 571 221 q 719 276 686 306 q 753 210 753 247 m 294 451 q 324 315 294 375 q 414 232 354 256 l 414 676 q 326 592 358 653 q 294 451 294 532 z "},"£":{"ha":797,"x_min":68,"x_max":717,"o":"m 492 403 q 281 133 492 276 q 393 129 311 129 q 679 176 544 129 q 717 86 717 131 q 683 25 717 46 q 433 -4 638 -4 q 92 11 192 -4 q 68 122 68 42 q 218 241 164 171 q 272 371 272 311 q 263 440 272 401 q 113 435 142 438 q 100 492 100 458 q 131 532 100 519 q 222 549 161 544 q 174 711 174 657 q 253 864 174 793 q 456 935 333 935 q 564 910 526 935 q 601 847 601 885 q 581 795 601 821 q 524 754 560 769 q 473 798 506 781 q 408 815 440 815 q 343 751 343 815 q 353 706 343 732 q 374 663 363 681 q 407 611 385 644 q 439 561 429 578 q 635 574 578 564 q 653 503 653 536 q 563 435 653 435 l 489 435 q 492 403 492 415 z "},"¥":{"ha":797,"x_min":7,"x_max":767,"o":"m 558 492 l 608 492 q 742 500 658 492 l 746 469 q 692 410 746 414 l 504 410 l 504 325 l 608 326 q 742 335 658 326 l 746 304 q 692 244 746 249 l 504 244 q 529 19 504 100 q 408 -6 488 -6 q 299 82 299 -6 q 301 244 299 117 l 200 244 q 64 236 147 244 q 57 271 57 260 q 111 324 57 324 l 193 324 l 301 324 l 301 410 l 200 410 q 64 401 147 410 q 57 436 57 425 q 111 489 57 489 l 193 489 l 268 489 q 153 691 222 586 q 7 843 83 796 q 76 912 46 892 q 151 932 106 932 q 212 917 189 932 q 257 868 235 901 q 422 560 288 821 q 526 762 471 636 q 583 932 582 888 q 631 935 611 935 q 767 850 767 935 q 740 768 767 815 q 558 492 660 624 z "},"¦":{"ha":797,"x_min":322,"x_max":476,"o":"m 339 15 l 339 25 q 322 263 339 218 q 382 269 354 269 q 474 193 474 269 q 470 149 474 190 q 463 42 467 108 q 460 -92 460 -25 l 460 -101 q 476 -337 460 -293 q 417 -346 444 -346 q 325 -271 325 -346 q 328 -227 325 -268 q 335 -119 332 -186 q 339 15 339 -51 m 339 769 l 339 779 q 322 1017 339 972 q 382 1024 354 1024 q 474 947 474 1024 q 470 903 474 944 q 463 796 467 863 q 460 663 460 729 l 460 653 q 476 417 460 461 q 417 408 444 408 q 325 483 325 408 q 328 527 325 486 q 335 635 332 568 q 339 769 339 703 z "},"§":{"ha":672,"x_min":40,"x_max":628,"o":"m 78 739 q 158 879 78 825 q 367 933 238 933 q 525 904 447 933 q 603 824 603 875 q 482 717 603 746 q 435 782 471 757 q 358 807 399 807 q 292 789 315 807 q 269 742 269 771 q 306 665 269 699 q 396 606 343 631 q 501 552 449 581 q 591 475 554 524 q 628 363 628 426 q 557 219 628 278 q 603 94 603 164 q 524 -49 603 10 q 306 -108 446 -108 q 236 -103 275 -108 q 150 -87 197 -99 q 72 -49 103 -75 q 40 10 40 -24 q 131 104 40 69 q 304 17 179 17 q 403 101 403 17 q 366 178 403 146 q 277 231 329 210 q 173 277 225 253 q 84 349 121 301 q 47 463 47 396 q 122 607 47 551 q 78 739 78 665 m 192 538 q 190 518 190 531 q 233 431 190 468 q 363 351 275 394 q 486 283 450 308 q 488 297 488 288 q 444 376 488 340 q 317 459 400 413 q 192 538 233 506 z "},"¨":{"ha":592,"x_min":8,"x_max":581,"o":"m 453 722 q 363 759 400 722 q 326 853 326 796 q 365 944 326 907 q 456 982 404 982 q 544 944 507 982 q 581 853 581 907 q 542 760 581 797 q 453 722 503 722 m 135 722 q 45 759 82 722 q 8 853 8 796 q 47 944 8 907 q 138 982 86 982 q 226 944 189 982 q 263 853 263 907 q 224 760 263 797 q 135 722 185 722 z "},"©":{"ha":1192,"x_min":181,"x_max":1142,"o":"m 1042 444 q 931 742 1042 628 q 663 857 821 857 q 391 743 501 857 q 281 444 281 629 q 391 146 281 260 q 663 32 501 32 q 931 146 821 32 q 1042 444 1042 260 m 1142 444 q 1002 94 1142 236 q 663 -47 863 -47 q 319 94 458 -47 q 181 444 181 235 q 319 796 181 656 q 663 936 458 936 q 1003 796 864 936 q 1142 444 1142 656 m 871 224 q 814 160 871 188 q 679 133 757 133 q 571 149 622 133 q 473 199 519 165 q 399 297 426 233 q 371 443 371 360 q 463 683 371 601 q 671 765 554 765 q 756 753 713 765 q 836 713 800 742 q 872 644 872 685 q 771 576 872 590 q 728 642 760 619 q 661 664 696 664 q 568 607 606 664 q 531 458 531 550 q 578 288 531 342 q 692 235 626 235 q 814 299 767 235 q 871 224 871 264 z "},"ª":{"ha":471,"x_min":42,"x_max":436,"o":"m 436 374 q 408 318 436 339 q 333 297 381 297 q 273 302 317 297 q 206 307 229 307 l 199 307 q 67 285 139 307 q 57 351 57 325 q 81 406 57 383 q 154 428 104 428 q 208 424 164 428 q 279 419 251 419 l 299 419 q 422 440 367 419 q 436 374 436 406 m 125 765 q 74 784 96 768 q 53 821 53 800 q 72 859 53 843 q 120 881 90 875 q 174 890 150 888 q 221 893 197 893 q 347 864 296 893 q 399 771 399 835 q 398 711 399 753 q 397 653 397 669 q 411 518 397 558 q 343 503 389 503 q 276 546 283 503 q 171 497 239 497 q 81 529 119 497 q 42 617 42 561 q 118 713 42 692 q 275 735 185 732 q 263 799 275 781 q 214 817 251 817 q 125 765 147 817 m 278 669 q 225 662 242 665 q 193 648 208 658 q 178 619 178 638 q 213 579 178 579 q 275 600 254 579 l 275 622 q 278 669 275 654 z "},"«":{"ha":804,"x_min":64,"x_max":778,"o":"m 281 326 q 372 201 326 271 q 418 111 418 132 q 319 33 418 69 q 64 326 215 121 q 318 619 217 536 q 398 573 379 592 q 417 533 417 554 q 373 449 417 514 q 281 326 329 385 m 640 326 q 732 201 686 271 q 778 111 778 132 q 679 33 778 69 q 424 326 575 121 q 678 619 576 536 q 758 573 739 592 q 776 533 776 554 q 733 449 776 514 q 640 326 689 385 z "},"¬":{"ha":797,"x_min":79,"x_max":692,"o":"m 163 467 l 688 467 q 692 139 692 143 q 673 67 692 89 q 604 44 654 44 q 515 61 551 44 q 550 342 550 179 l 550 363 l 292 363 q 93 333 179 363 q 79 393 79 364 q 163 467 79 467 z "},"®":{"ha":813,"x_min":118,"x_max":753,"o":"m 603 427 q 637 462 603 427 q 671 611 671 497 q 603 795 671 725 q 436 865 535 865 q 268 795 336 865 q 200 611 200 725 q 268 427 200 497 q 436 357 336 357 q 603 427 535 357 m 660 842 q 707 795 660 842 q 753 611 753 749 q 660 381 753 474 q 436 288 568 288 q 210 381 301 288 q 118 611 118 474 q 210 842 118 750 q 436 935 301 935 q 660 842 568 935 m 431 626 q 485 678 485 626 q 466 719 485 703 q 421 735 447 735 l 403 735 l 403 628 q 431 626 408 626 m 590 494 q 596 472 596 483 q 582 448 596 457 q 549 439 568 439 q 493 464 514 439 q 403 582 433 526 l 403 550 q 415 456 403 492 q 364 442 389 442 q 299 483 299 442 q 300 525 299 496 q 301 565 301 554 l 301 658 q 294 778 301 731 q 429 786 399 786 q 585 678 585 786 q 501 581 585 607 q 565 500 511 561 q 590 494 571 494 z "},"¯":{"ha":489,"x_min":0,"x_max":489,"o":"m 231 897 l 269 897 q 481 908 358 897 q 489 838 489 858 q 425 764 489 764 l 396 767 q 321 772 367 769 q 233 774 275 774 l 193 774 q 8 764 101 774 q 0 833 0 814 q 57 908 0 908 q 131 903 63 908 q 231 897 199 897 z "},"°":{"ha":583,"x_min":56,"x_max":501,"o":"m 175 760 q 201 669 175 704 q 274 633 226 633 q 347 671 321 633 q 374 765 374 708 q 349 856 374 819 q 278 892 324 892 q 202 854 229 892 q 175 760 175 817 m 56 760 q 119 923 56 858 q 283 988 182 988 q 440 924 378 988 q 501 767 501 861 q 439 602 501 667 q 276 538 376 538 q 117 601 179 538 q 56 760 56 664 z "},"±":{"ha":797,"x_min":68,"x_max":728,"o":"m 461 463 q 722 478 579 463 q 728 419 728 461 q 708 360 728 385 q 656 336 688 336 q 565 343 622 336 q 460 350 508 350 q 475 175 460 260 q 415 167 431 167 q 357 184 382 167 q 332 235 332 201 q 339 293 332 249 q 346 351 346 338 q 74 336 299 351 q 68 394 68 365 q 85 452 68 426 q 140 478 103 478 q 208 472 151 478 q 349 464 264 467 q 332 703 349 565 q 392 708 350 708 q 451 689 426 708 q 475 638 475 669 q 468 558 475 606 q 461 463 461 511 m 693 79 q 674 20 693 44 q 622 -4 654 -4 q 516 3 599 -4 q 392 11 433 11 q 92 -4 235 11 q 86 54 86 25 q 103 112 86 86 q 157 138 121 138 q 251 131 163 138 q 403 124 339 124 q 685 138 589 124 q 693 79 693 121 z "},"²":{"ha":674,"x_min":54,"x_max":615,"o":"m 168 707 q 99 735 125 713 q 74 789 74 758 q 131 875 74 836 q 332 935 219 935 q 508 886 447 935 q 568 763 568 838 q 549 681 568 721 q 508 612 531 640 q 440 548 485 583 q 369 494 396 513 q 292 444 343 476 q 365 443 317 443 q 582 469 493 443 q 615 381 615 418 q 576 322 615 333 q 342 306 517 306 q 227 307 285 306 q 129 308 169 308 q 54 376 54 308 q 58 419 54 397 q 162 488 126 464 q 256 561 197 513 q 342 656 314 610 q 369 750 369 703 q 299 808 369 808 q 227 783 263 808 q 168 707 192 758 z "},"³":{"ha":626,"x_min":54,"x_max":563,"o":"m 210 674 q 316 701 281 674 q 351 774 351 729 q 289 824 351 824 q 210 804 250 824 q 153 757 169 785 q 86 835 86 774 q 166 908 86 881 q 307 935 246 935 q 491 894 431 935 q 551 786 551 854 q 433 636 551 675 q 531 572 499 615 q 563 478 563 529 q 488 340 563 392 q 267 289 414 289 q 213 292 243 289 q 144 304 183 296 q 80 331 106 313 q 54 376 54 350 q 121 471 54 429 q 265 406 174 406 q 338 424 313 406 q 364 493 364 443 q 329 558 364 532 q 219 585 294 585 q 183 636 183 585 q 188 672 183 658 q 199 673 192 672 q 210 674 206 674 z "},"´":{"ha":392,"x_min":54,"x_max":436,"o":"m 403 874 q 249 802 369 853 q 103 726 128 751 q 54 797 54 765 q 90 851 54 824 q 174 899 126 878 q 277 956 221 919 q 363 1032 333 993 q 436 936 436 992 q 403 874 436 896 z "},"µ":{"ha":764,"x_min":50,"x_max":710,"o":"m 710 14 q 593 -4 642 -4 q 517 16 549 -4 q 483 75 486 36 q 425 12 464 38 q 346 -14 386 -14 q 258 17 289 -14 q 250 -75 250 -25 q 292 -340 250 -190 q 196 -351 257 -351 q 94 -333 121 -351 q 68 -272 68 -315 q 70 59 68 -139 q 72 335 72 257 l 72 429 q 50 646 72 574 q 163 664 104 664 q 282 579 282 664 q 278 408 282 533 q 274 258 274 283 q 295 156 274 192 q 349 119 317 119 q 481 185 419 119 q 479 353 479 239 q 469 646 479 514 q 576 664 525 664 q 663 647 632 664 q 693 578 693 631 q 689 468 693 558 q 685 282 685 378 q 710 14 685 106 z "},"¶":{"ha":700,"x_min":40,"x_max":682,"o":"m 433 697 q 360 701 394 697 q 347 328 347 565 q 278 293 347 293 q 110 362 181 293 q 40 540 40 431 q 117 730 40 660 q 308 800 193 800 q 428 797 347 800 q 535 794 508 794 q 672 796 631 794 q 682 753 682 772 q 572 696 682 696 q 556 233 556 499 q 558 93 556 217 q 561 -93 561 -31 q 543 -153 561 -132 q 472 -174 525 -174 q 393 -161 425 -174 q 419 157 419 -89 q 433 697 419 283 z "},"·":{"ha":326,"x_min":36,"x_max":290,"o":"m 163 233 q 73 270 110 233 q 36 364 36 307 q 75 456 36 418 q 165 493 114 493 q 253 456 217 493 q 290 364 290 418 q 251 271 290 308 q 163 233 213 233 z "},"¸":{"ha":319,"x_min":26,"x_max":346,"o":"m 128 44 l 247 38 q 222 -42 222 -37 q 242 -71 222 -57 q 284 -97 261 -85 q 326 -137 307 -110 q 346 -200 346 -164 q 281 -302 346 -254 q 124 -350 217 -350 q 51 -332 75 -350 q 26 -287 26 -314 q 61 -212 26 -250 q 108 -231 79 -231 q 150 -178 150 -231 q 119 -125 150 -150 q 88 -75 88 -100 q 128 44 88 -29 z "},"¹":{"ha":551,"x_min":63,"x_max":488,"o":"m 374 428 q 475 433 422 428 q 488 376 488 406 q 471 324 488 344 q 419 303 454 303 q 349 304 408 303 q 217 306 289 306 q 72 304 124 306 q 64 356 64 329 q 139 432 64 432 l 199 432 q 199 517 199 444 q 200 642 200 590 q 196 804 200 725 q 72 782 125 800 q 63 831 63 803 q 119 904 63 889 q 282 935 229 935 q 372 869 372 935 q 371 824 372 863 q 367 725 369 785 q 365 607 365 665 l 365 557 q 374 428 365 471 z "},"º":{"ha":493,"x_min":42,"x_max":451,"o":"m 436 374 q 408 318 436 339 q 333 297 381 297 q 273 302 317 297 q 206 307 229 307 l 199 307 q 67 285 139 307 q 57 351 57 325 q 81 406 57 383 q 154 428 104 428 q 208 424 164 428 q 279 419 251 419 l 299 419 q 422 440 367 419 q 436 374 436 406 m 246 508 q 98 562 154 508 q 42 701 42 615 q 98 841 42 789 q 246 893 154 893 q 395 841 339 893 q 451 701 451 789 q 395 562 451 615 q 246 508 339 508 m 332 689 q 308 781 332 744 q 246 817 285 817 q 184 788 206 817 q 163 713 163 760 q 185 619 163 657 q 246 582 207 582 q 309 612 286 582 q 332 689 332 642 z "},"»":{"ha":804,"x_min":64,"x_max":778,"o":"m 201 326 q 109 449 153 385 q 65 533 65 514 q 84 573 65 554 q 164 619 103 592 q 418 326 265 536 q 163 33 267 121 q 64 111 64 69 q 110 201 64 132 q 201 326 156 271 m 561 326 q 469 449 513 385 q 425 533 425 514 q 444 573 425 554 q 524 619 463 592 q 778 326 625 536 q 522 33 626 121 q 424 111 424 69 q 469 201 424 132 q 561 326 515 271 z "},"¼":{"ha":1415,"x_min":76,"x_max":1339,"o":"m 388 428 q 489 433 436 428 q 501 376 501 406 q 485 324 501 344 q 433 303 468 303 q 363 304 422 303 q 231 306 303 306 q 86 304 138 306 q 78 356 78 329 q 153 432 78 432 l 213 432 q 213 517 213 444 q 214 642 214 590 q 210 804 214 725 q 86 782 139 800 q 76 831 76 803 q 133 904 76 889 q 296 935 243 935 q 386 869 386 935 q 385 824 386 863 q 381 725 383 785 q 379 607 379 665 l 379 557 q 388 428 379 471 m 932 271 q 1076 268 961 268 q 1078 474 1076 422 q 932 271 990 369 m 1032 606 q 1149 632 1064 632 q 1240 625 1196 632 q 1238 574 1240 622 q 1234 444 1236 526 q 1232 275 1232 363 q 1325 292 1297 279 q 1339 231 1339 267 q 1312 169 1339 186 q 1231 153 1285 153 q 1251 -3 1231 60 q 1175 -14 1210 -14 q 1093 3 1114 -14 q 1072 58 1072 19 q 1074 151 1072 93 q 815 161 886 151 q 781 181 789 167 q 772 229 772 196 q 773 251 772 238 q 774 271 774 265 q 901 458 825 358 q 1032 606 976 557 m 385 -53 l 711 606 q 908 1026 847 879 q 975 1010 944 1026 q 1006 965 1006 994 q 964 868 1006 953 q 922 783 936 811 q 894 726 908 754 q 819 577 879 697 q 664 268 758 457 q 469 -151 531 -3 q 401 -136 429 -151 q 372 -92 372 -121 q 385 -53 372 -75 z "},"½":{"ha":1497,"x_min":76,"x_max":1425,"o":"m 978 400 q 909 428 935 406 q 883 482 883 451 q 940 568 883 529 q 1142 628 1029 628 q 1317 579 1257 628 q 1378 456 1378 531 q 1359 374 1378 414 q 1317 305 1340 333 q 1250 241 1294 276 q 1179 188 1206 206 q 1101 138 1153 169 q 1175 136 1126 136 q 1392 163 1303 136 q 1425 74 1425 111 q 1386 15 1425 26 q 1151 -1 1326 -1 q 1037 0 1094 -1 q 939 1 979 1 q 864 69 864 1 q 868 113 864 89 q 972 181 936 157 q 1065 254 1007 206 q 1151 349 1124 303 q 1179 443 1179 396 q 1108 501 1179 501 q 1037 476 1072 501 q 978 400 1001 451 m 388 428 q 489 433 436 428 q 501 376 501 406 q 485 324 501 344 q 433 303 468 303 q 363 304 422 303 q 231 306 303 306 q 86 304 138 306 q 78 356 78 329 q 153 432 78 432 l 213 432 q 213 517 213 444 q 214 642 214 590 q 210 804 214 725 q 86 782 139 800 q 76 831 76 803 q 133 904 76 889 q 296 935 243 935 q 386 869 386 935 q 385 824 386 863 q 381 725 383 785 q 379 607 379 665 l 379 557 q 388 428 379 471 m 385 -53 l 711 606 q 908 1026 847 879 q 975 1010 944 1026 q 1006 965 1006 994 q 964 868 1006 953 q 922 783 936 811 q 894 726 908 754 q 819 577 879 697 q 664 268 758 457 q 469 -151 531 -3 q 401 -136 429 -151 q 372 -92 372 -121 q 385 -53 372 -75 z "},"¾":{"ha":1468,"x_min":68,"x_max":1390,"o":"m 224 674 q 330 701 294 674 q 365 774 365 729 q 303 824 365 824 q 224 804 264 824 q 167 757 183 785 q 100 835 100 774 q 180 908 100 881 q 321 935 260 935 q 505 894 444 935 q 565 786 565 854 q 447 636 565 675 q 544 572 513 615 q 576 478 576 529 q 502 340 576 392 q 281 289 428 289 q 227 292 257 289 q 158 304 197 296 q 94 331 119 313 q 68 376 68 350 q 135 471 68 429 q 279 406 188 406 q 352 424 326 406 q 378 493 378 443 q 343 558 378 532 q 233 585 308 585 q 197 636 197 585 q 201 672 197 658 q 213 673 206 672 q 224 674 219 674 m 983 271 q 1128 268 1013 268 q 1129 474 1128 422 q 983 271 1042 369 m 1083 606 q 1200 632 1115 632 q 1292 625 1247 632 q 1290 574 1292 622 q 1285 444 1288 526 q 1283 275 1283 363 q 1376 292 1349 279 q 1390 231 1390 267 q 1363 169 1390 186 q 1282 153 1336 153 q 1303 -3 1282 60 q 1226 -14 1261 -14 q 1144 3 1165 -14 q 1124 58 1124 19 q 1125 151 1124 93 q 867 161 938 151 q 832 181 840 167 q 824 229 824 196 q 824 251 824 238 q 825 271 825 265 q 952 458 876 358 q 1083 606 1028 557 m 436 -53 l 763 606 q 960 1026 899 879 q 1026 1010 996 1026 q 1057 965 1057 994 q 1015 868 1057 953 q 974 783 988 811 q 945 726 960 754 q 870 577 931 697 q 715 268 810 457 q 521 -151 582 -3 q 452 -136 481 -151 q 424 -92 424 -121 q 436 -53 424 -75 z "},"¿":{"ha":564,"x_min":18,"x_max":550,"o":"m 304 674 q 393 639 357 674 q 429 550 429 604 q 391 463 429 499 q 301 426 353 426 q 215 463 251 426 q 178 550 178 499 q 216 638 178 603 q 304 674 254 674 m 203 313 q 306 342 260 342 q 397 317 368 342 q 425 256 425 292 q 395 153 425 204 q 329 67 365 103 q 263 -17 293 32 q 233 -112 233 -65 q 254 -166 233 -147 q 311 -185 275 -185 q 378 -156 347 -185 q 418 -81 410 -128 q 550 -174 550 -96 q 478 -269 550 -235 q 304 -304 406 -304 q 231 -300 267 -304 q 156 -283 196 -296 q 86 -251 115 -271 q 38 -198 57 -232 q 18 -119 18 -164 q 38 -17 18 -62 q 87 58 58 29 q 144 115 115 88 q 192 175 172 142 q 213 249 213 208 q 203 313 213 278 z "},"À":{"ha":853,"x_min":6,"x_max":869,"o":"m 515 400 q 463 597 493 476 q 426 736 432 717 q 329 400 340 436 q 435 397 396 397 q 515 400 489 397 m 417 260 q 293 265 360 260 q 179 -25 199 38 q 108 -14 131 -18 q 57 1 86 -10 q 17 28 28 11 q 6 69 6 44 q 53 211 6 99 q 182 522 101 324 q 318 911 263 721 q 425 921 383 921 q 575 819 542 921 q 722 389 678 503 q 869 31 831 107 q 740 -14 804 -14 q 635 39 658 -14 q 594 142 619 75 q 546 263 568 208 q 417 260 438 260 m 231 1317 q 308 1243 258 1281 q 399 1181 358 1206 q 470 1127 439 1157 q 501 1071 501 1097 q 447 994 501 1033 q 310 1076 396 1032 q 181 1151 225 1119 q 138 1218 138 1182 q 231 1317 138 1272 z "},"Á":{"ha":853,"x_min":6,"x_max":869,"o":"m 515 400 q 463 597 493 476 q 426 736 432 717 q 329 400 340 436 q 435 397 396 397 q 515 400 489 397 m 417 260 q 293 265 360 260 q 179 -25 199 38 q 108 -14 131 -18 q 57 1 86 -10 q 17 28 28 11 q 6 69 6 44 q 53 211 6 99 q 182 522 101 324 q 318 911 263 721 q 425 921 383 921 q 575 819 542 921 q 722 389 678 503 q 869 31 831 107 q 740 -14 804 -14 q 635 39 658 -14 q 594 142 619 75 q 546 263 568 208 q 417 260 438 260 m 646 1142 q 492 1070 613 1121 q 346 994 371 1019 q 297 1065 297 1033 q 333 1119 297 1092 q 417 1167 369 1146 q 520 1224 464 1188 q 606 1300 576 1261 q 679 1204 679 1260 q 646 1142 679 1164 z "},"Â":{"ha":853,"x_min":6,"x_max":869,"o":"m 515 400 q 463 597 493 476 q 426 736 432 717 q 329 400 340 436 q 435 397 396 397 q 515 400 489 397 m 417 260 q 293 265 360 260 q 179 -25 199 38 q 108 -14 131 -18 q 57 1 86 -10 q 17 28 28 11 q 6 69 6 44 q 53 211 6 99 q 182 522 101 324 q 318 911 263 721 q 425 921 383 921 q 575 819 542 921 q 722 389 678 503 q 869 31 831 107 q 740 -14 804 -14 q 635 39 658 -14 q 594 142 619 75 q 546 263 568 208 q 417 260 438 260 m 411 1267 q 639 1068 639 1142 q 615 1021 639 1044 q 553 989 590 997 q 483 1058 519 1028 q 428 1100 447 1089 l 408 1113 q 238 1000 271 1000 q 198 1010 214 1000 q 160 1053 182 1021 q 411 1267 274 1176 z "},"Ã":{"ha":853,"x_min":6,"x_max":869,"o":"m 515 400 q 463 597 493 476 q 426 736 432 717 q 329 400 340 436 q 435 397 396 397 q 515 400 489 397 m 417 260 q 293 265 360 260 q 179 -25 199 38 q 108 -14 131 -18 q 57 1 86 -10 q 17 28 28 11 q 6 69 6 44 q 53 211 6 99 q 182 522 101 324 q 318 911 263 721 q 425 921 383 921 q 575 819 542 921 q 722 389 678 503 q 869 31 831 107 q 740 -14 804 -14 q 635 39 658 -14 q 594 142 619 75 q 546 263 568 208 q 417 260 438 260 m 665 1135 q 610 1041 665 1086 q 488 996 554 996 q 393 1026 454 996 q 308 1056 332 1056 q 214 1000 278 1056 q 160 1057 160 1019 q 216 1150 160 1104 q 338 1196 272 1196 q 433 1166 371 1196 q 518 1136 494 1136 q 611 1192 550 1136 q 647 1173 629 1189 q 665 1135 665 1157 z "},"Ä":{"ha":853,"x_min":6,"x_max":869,"o":"m 515 400 q 463 597 493 476 q 426 736 432 717 q 329 400 340 436 q 435 397 396 397 q 515 400 489 397 m 417 260 q 293 265 360 260 q 179 -25 199 38 q 108 -14 131 -18 q 57 1 86 -10 q 17 28 28 11 q 6 69 6 44 q 53 211 6 99 q 182 522 101 324 q 318 911 263 721 q 425 921 383 921 q 575 819 542 921 q 722 389 678 503 q 869 31 831 107 q 740 -14 804 -14 q 635 39 658 -14 q 594 142 619 75 q 546 263 568 208 q 417 260 438 260 m 563 990 q 473 1027 510 990 q 436 1121 436 1064 q 475 1213 436 1175 q 565 1250 514 1250 q 653 1213 617 1250 q 690 1121 690 1175 q 651 1027 690 1064 q 563 990 613 990 m 244 990 q 155 1027 192 990 q 118 1121 118 1064 q 157 1213 118 1175 q 247 1250 196 1250 q 335 1213 299 1250 q 372 1121 372 1175 q 333 1027 372 1064 q 244 990 294 990 z "},"Å":{"ha":853,"x_min":6,"x_max":869,"o":"m 515 400 q 463 597 493 476 q 426 736 432 717 q 329 400 340 436 q 435 397 396 397 q 515 400 489 397 m 417 260 q 293 265 360 260 q 179 -25 199 38 q 108 -14 131 -18 q 57 1 86 -10 q 17 28 28 11 q 6 69 6 44 q 53 211 6 99 q 182 522 101 324 q 318 911 263 721 q 425 921 383 921 q 575 819 542 921 q 722 389 678 503 q 869 31 831 107 q 740 -14 804 -14 q 635 39 658 -14 q 594 142 619 75 q 546 263 568 208 q 417 260 438 260 m 411 1018 q 295 1063 340 1018 q 250 1179 250 1107 q 295 1297 250 1253 q 411 1342 340 1342 q 527 1297 483 1342 q 571 1179 571 1253 q 527 1063 571 1107 q 411 1018 483 1018 m 486 1172 q 465 1244 486 1215 q 411 1272 444 1272 q 356 1249 376 1272 q 335 1186 335 1225 q 356 1115 335 1143 q 411 1088 376 1088 q 467 1110 447 1088 q 486 1172 486 1133 z "},"Æ":{"ha":1133,"x_min":0,"x_max":1106,"o":"m 361 400 q 472 397 433 397 l 472 669 q 361 400 469 664 m 682 779 q 688 565 688 735 l 797 565 q 961 574 886 565 q 969 515 969 556 q 946 444 969 464 q 861 424 922 424 l 688 424 q 699 142 688 189 q 797 139 760 139 q 1089 171 1024 139 q 1106 75 1106 129 q 1069 13 1106 28 q 922 -3 1032 -3 q 538 0 590 -3 q 483 19 497 1 q 469 79 469 38 q 472 260 469 99 l 433 260 q 317 263 411 260 q 169 -14 201 63 q 35 18 69 -3 q 0 75 0 39 q 21 138 0 96 q 97 278 42 181 q 190 446 153 375 q 411 908 329 710 q 819 925 578 925 q 1079 903 1019 925 q 1106 847 1106 893 q 1089 753 1106 793 q 779 782 997 782 q 682 779 751 782 z "},"Ç":{"ha":874,"x_min":44,"x_max":835,"o":"m 729 246 q 835 132 835 197 q 801 61 835 92 q 716 15 767 31 q 619 -7 665 0 q 536 -14 574 -14 q 482 -11 518 -14 q 475 -42 475 -32 q 494 -71 475 -57 q 537 -97 514 -85 q 579 -137 560 -110 q 599 -200 599 -164 q 534 -302 599 -254 q 376 -350 469 -350 q 303 -332 328 -350 q 279 -287 279 -314 q 314 -212 279 -250 q 361 -231 332 -231 q 403 -178 403 -231 q 372 -125 403 -150 q 340 -75 340 -100 q 364 10 340 -47 q 133 161 222 50 q 44 461 44 272 q 176 809 44 683 q 535 935 308 935 q 738 891 656 935 q 821 783 821 847 q 781 704 821 735 q 674 665 740 674 q 599 762 650 729 q 489 794 547 794 q 331 707 393 794 q 269 489 269 619 q 333 231 269 335 q 510 126 396 126 q 633 156 574 126 q 729 246 692 185 z "},"È":{"ha":739,"x_min":60,"x_max":711,"o":"m 288 779 q 293 565 293 735 l 403 565 q 567 574 492 565 q 575 515 575 556 q 551 444 575 464 q 467 424 528 424 l 293 424 q 304 142 293 189 q 403 139 365 139 q 694 171 629 139 q 711 75 711 129 q 674 13 711 28 q 528 -3 638 -3 q 143 0 196 -3 q 89 19 103 1 q 75 79 75 38 q 76 182 75 101 q 78 311 78 263 l 78 589 q 60 913 78 785 q 425 925 239 925 q 685 903 625 925 q 711 847 711 893 q 694 753 711 793 q 385 782 603 782 q 288 779 357 782 m 204 1317 q 282 1243 232 1281 q 372 1181 332 1206 q 444 1127 413 1157 q 475 1071 475 1097 q 421 994 475 1033 q 284 1076 369 1032 q 155 1151 199 1119 q 111 1218 111 1182 q 204 1317 111 1272 z "},"É":{"ha":739,"x_min":60,"x_max":711,"o":"m 288 779 q 293 565 293 735 l 403 565 q 567 574 492 565 q 575 515 575 556 q 551 444 575 464 q 467 424 528 424 l 293 424 q 304 142 293 189 q 403 139 365 139 q 694 171 629 139 q 711 75 711 129 q 674 13 711 28 q 528 -3 638 -3 q 143 0 196 -3 q 89 19 103 1 q 75 79 75 38 q 76 182 75 101 q 78 311 78 263 l 78 589 q 60 913 78 785 q 425 925 239 925 q 685 903 625 925 q 711 847 711 893 q 694 753 711 793 q 385 782 603 782 q 288 779 357 782 m 619 1142 q 465 1070 586 1121 q 319 994 344 1019 q 271 1065 271 1033 q 307 1119 271 1092 q 390 1167 343 1146 q 494 1224 438 1188 q 579 1300 550 1261 q 653 1204 653 1260 q 619 1142 653 1164 z "},"Ê":{"ha":739,"x_min":60,"x_max":711,"o":"m 288 779 q 293 565 293 735 l 403 565 q 567 574 492 565 q 575 515 575 556 q 551 444 575 464 q 467 424 528 424 l 293 424 q 304 142 293 189 q 403 139 365 139 q 694 171 629 139 q 711 75 711 129 q 674 13 711 28 q 528 -3 638 -3 q 143 0 196 -3 q 89 19 103 1 q 75 79 75 38 q 76 182 75 101 q 78 311 78 263 l 78 589 q 60 913 78 785 q 425 925 239 925 q 685 903 625 925 q 711 847 711 893 q 694 753 711 793 q 385 782 603 782 q 288 779 357 782 m 385 1267 q 613 1068 613 1142 q 588 1021 613 1044 q 526 989 564 997 q 457 1058 493 1028 q 401 1100 421 1089 l 382 1113 q 211 1000 244 1000 q 172 1010 188 1000 q 133 1053 156 1021 q 385 1267 247 1176 z "},"Ë":{"ha":739,"x_min":60,"x_max":711,"o":"m 288 779 q 293 565 293 735 l 403 565 q 567 574 492 565 q 575 515 575 556 q 551 444 575 464 q 467 424 528 424 l 293 424 q 304 142 293 189 q 403 139 365 139 q 694 171 629 139 q 711 75 711 129 q 674 13 711 28 q 528 -3 638 -3 q 143 0 196 -3 q 89 19 103 1 q 75 79 75 38 q 76 182 75 101 q 78 311 78 263 l 78 589 q 60 913 78 785 q 425 925 239 925 q 685 903 625 925 q 711 847 711 893 q 694 753 711 793 q 385 782 603 782 q 288 779 357 782 m 536 990 q 447 1027 483 990 q 410 1121 410 1064 q 449 1213 410 1175 q 539 1250 488 1250 q 627 1213 590 1250 q 664 1121 664 1175 q 625 1027 664 1064 q 536 990 586 990 m 218 990 q 128 1027 165 990 q 92 1121 92 1064 q 131 1213 92 1175 q 221 1250 169 1250 q 309 1213 272 1250 q 346 1121 346 1175 q 307 1027 346 1064 q 218 990 268 990 z "},"Ì":{"ha":358,"x_min":-86,"x_max":319,"o":"m 72 321 l 72 599 q 60 914 72 751 q 169 925 113 925 q 259 906 222 925 q 296 849 296 888 q 291 737 296 842 q 286 561 286 632 l 286 282 q 319 15 286 126 q 193 -4 268 -4 q 147 -1 165 -4 q 109 13 129 3 q 79 49 89 24 q 69 115 69 75 q 71 215 69 142 q 72 321 72 288 m 7 1317 q 85 1243 35 1281 q 175 1181 135 1206 q 247 1127 215 1157 q 278 1071 278 1097 q 224 994 278 1033 q 87 1076 172 1032 q -42 1151 1 1119 q -86 1218 -86 1182 q 7 1317 -86 1272 z "},"Í":{"ha":358,"x_min":60,"x_max":456,"o":"m 72 321 l 72 599 q 60 914 72 751 q 169 925 113 925 q 259 906 222 925 q 296 849 296 888 q 291 737 296 842 q 286 561 286 632 l 286 282 q 319 15 286 126 q 193 -4 268 -4 q 147 -1 165 -4 q 109 13 129 3 q 79 49 89 24 q 69 115 69 75 q 71 215 69 142 q 72 321 72 288 m 422 1142 q 268 1070 389 1121 q 122 994 147 1019 q 74 1065 74 1033 q 110 1119 74 1092 q 193 1167 146 1146 q 297 1224 240 1188 q 382 1300 353 1261 q 456 1204 456 1260 q 422 1142 456 1164 z "},"Î":{"ha":358,"x_min":-64,"x_max":415,"o":"m 72 321 l 72 599 q 60 914 72 751 q 169 925 113 925 q 259 906 222 925 q 296 849 296 888 q 291 737 296 842 q 286 561 286 632 l 286 282 q 319 15 286 126 q 193 -4 268 -4 q 147 -1 165 -4 q 109 13 129 3 q 79 49 89 24 q 69 115 69 75 q 71 215 69 142 q 72 321 72 288 m 188 1267 q 415 1068 415 1142 q 391 1021 415 1044 q 329 989 367 997 q 260 1058 296 1028 q 204 1100 224 1089 l 185 1113 q 14 1000 47 1000 q -26 1010 -10 1000 q -64 1053 -42 1021 q 188 1267 50 1176 z "},"Ï":{"ha":358,"x_min":-106,"x_max":467,"o":"m 72 321 l 72 599 q 60 914 72 751 q 169 925 113 925 q 259 906 222 925 q 296 849 296 888 q 291 737 296 842 q 286 561 286 632 l 286 282 q 319 15 286 126 q 193 -4 268 -4 q 147 -1 165 -4 q 109 13 129 3 q 79 49 89 24 q 69 115 69 75 q 71 215 69 142 q 72 321 72 288 m 21 990 q -69 1027 -32 990 q -106 1121 -106 1064 q -67 1213 -106 1175 q 24 1250 -28 1250 q 112 1213 75 1250 q 149 1121 149 1175 q 110 1027 149 1064 q 21 990 71 990 m 339 990 q 249 1027 286 990 q 213 1121 213 1064 q 251 1213 213 1175 q 342 1250 290 1250 q 430 1213 393 1250 q 467 1121 467 1175 q 428 1027 467 1064 q 339 990 389 990 z "},"Ð":{"ha":957,"x_min":-14,"x_max":913,"o":"m 101 74 q 121 424 115 182 q -6 415 57 422 q -14 474 -14 433 q 10 545 -14 525 q 94 565 33 565 l 122 565 q 104 918 122 781 q 346 935 200 935 q 565 911 467 935 q 743 835 663 888 q 868 689 824 783 q 913 463 913 594 q 788 120 913 254 q 432 -14 663 -14 q 101 74 219 -14 m 332 792 q 338 597 338 710 l 338 565 l 363 565 q 526 574 451 565 q 535 515 535 556 q 511 444 535 464 q 426 424 488 424 l 335 424 q 318 165 331 278 q 461 126 394 126 q 627 215 569 126 q 685 435 685 303 q 610 705 685 614 q 397 796 536 796 q 332 792 364 796 z "},"Ñ":{"ha":906,"x_min":60,"x_max":846,"o":"m 844 6 q 758 -4 800 -4 q 599 61 640 -4 q 475 269 544 146 q 285 599 347 499 l 285 282 q 314 14 285 106 q 210 -4 274 -4 q 111 16 140 -4 q 82 92 82 36 q 84 193 82 114 q 86 321 86 272 l 86 599 q 60 907 86 822 q 181 926 126 926 q 331 865 281 926 q 635 382 432 739 l 633 599 q 624 915 633 789 q 710 925 682 925 q 846 844 846 925 q 840 727 846 839 q 835 561 835 615 l 835 324 q 844 6 835 132 m 715 1135 q 660 1041 715 1086 q 538 996 604 996 q 443 1026 504 996 q 358 1056 382 1056 q 264 1000 328 1056 q 210 1057 210 1019 q 266 1150 210 1104 q 388 1196 322 1196 q 483 1166 421 1196 q 568 1136 544 1136 q 661 1192 600 1136 q 697 1173 679 1189 q 715 1135 715 1157 z "},"Ò":{"ha":1011,"x_min":44,"x_max":967,"o":"m 504 -14 q 169 115 294 -14 q 44 460 44 244 q 169 806 44 678 q 504 935 293 935 q 842 806 717 935 q 967 460 967 678 q 841 115 967 244 q 504 -14 715 -14 m 739 435 q 717 604 739 526 q 641 738 696 682 q 506 794 586 794 q 333 713 397 794 q 269 503 269 631 q 291 324 269 406 q 367 185 313 243 q 503 126 422 126 q 677 212 615 126 q 739 435 739 297 m 325 1317 q 403 1243 353 1281 q 493 1181 453 1206 q 565 1127 533 1157 q 596 1071 596 1097 q 542 994 596 1033 q 405 1076 490 1032 q 276 1151 319 1119 q 232 1218 232 1182 q 325 1317 232 1272 z "},"Ó":{"ha":1011,"x_min":44,"x_max":967,"o":"m 504 -14 q 169 115 294 -14 q 44 460 44 244 q 169 806 44 678 q 504 935 293 935 q 842 806 717 935 q 967 460 967 678 q 841 115 967 244 q 504 -14 715 -14 m 739 435 q 717 604 739 526 q 641 738 696 682 q 506 794 586 794 q 333 713 397 794 q 269 503 269 631 q 291 324 269 406 q 367 185 313 243 q 503 126 422 126 q 677 212 615 126 q 739 435 739 297 m 740 1142 q 586 1070 707 1121 q 440 994 465 1019 q 392 1065 392 1033 q 428 1119 392 1092 q 511 1167 464 1146 q 615 1224 558 1188 q 700 1300 671 1261 q 774 1204 774 1260 q 740 1142 774 1164 z "},"Ô":{"ha":1011,"x_min":44,"x_max":967,"o":"m 504 -14 q 169 115 294 -14 q 44 460 44 244 q 169 806 44 678 q 504 935 293 935 q 842 806 717 935 q 967 460 967 678 q 841 115 967 244 q 504 -14 715 -14 m 739 435 q 717 604 739 526 q 641 738 696 682 q 506 794 586 794 q 333 713 397 794 q 269 503 269 631 q 291 324 269 406 q 367 185 313 243 q 503 126 422 126 q 677 212 615 126 q 739 435 739 297 m 506 1267 q 733 1068 733 1142 q 709 1021 733 1044 q 647 989 685 997 q 578 1058 614 1028 q 522 1100 542 1089 l 503 1113 q 332 1000 365 1000 q 292 1010 308 1000 q 254 1053 276 1021 q 506 1267 368 1176 z "},"Õ":{"ha":1011,"x_min":44,"x_max":967,"o":"m 504 -14 q 169 115 294 -14 q 44 460 44 244 q 169 806 44 678 q 504 935 293 935 q 842 806 717 935 q 967 460 967 678 q 841 115 967 244 q 504 -14 715 -14 m 739 435 q 717 604 739 526 q 641 738 696 682 q 506 794 586 794 q 333 713 397 794 q 269 503 269 631 q 291 324 269 406 q 367 185 313 243 q 503 126 422 126 q 677 212 615 126 q 739 435 739 297 m 760 1135 q 704 1041 760 1086 q 582 996 649 996 q 488 1026 549 996 q 403 1056 426 1056 q 308 1000 372 1056 q 254 1057 254 1019 q 310 1150 254 1104 q 432 1196 367 1196 q 527 1166 465 1196 q 613 1136 589 1136 q 706 1192 644 1136 q 742 1173 724 1189 q 760 1135 760 1157 z "},"Ö":{"ha":1011,"x_min":44,"x_max":967,"o":"m 504 -14 q 169 115 294 -14 q 44 460 44 244 q 169 806 44 678 q 504 935 293 935 q 842 806 717 935 q 967 460 967 678 q 841 115 967 244 q 504 -14 715 -14 m 739 435 q 717 604 739 526 q 641 738 696 682 q 506 794 586 794 q 333 713 397 794 q 269 503 269 631 q 291 324 269 406 q 367 185 313 243 q 503 126 422 126 q 677 212 615 126 q 739 435 739 297 m 657 990 q 567 1027 604 990 q 531 1121 531 1064 q 569 1213 531 1175 q 660 1250 608 1250 q 748 1213 711 1250 q 785 1121 785 1175 q 746 1027 785 1064 q 657 990 707 990 m 339 990 q 249 1027 286 990 q 213 1121 213 1064 q 251 1213 213 1175 q 342 1250 290 1250 q 430 1213 393 1250 q 467 1121 467 1175 q 428 1027 467 1064 q 339 990 389 990 z "},"×":{"ha":797,"x_min":76,"x_max":719,"o":"m 479 350 q 583 255 500 329 q 719 138 667 181 q 618 64 674 64 q 572 85 593 64 q 486 176 544 111 q 399 271 428 242 q 178 31 267 140 q 140 58 151 49 q 115 88 128 68 q 103 132 103 108 q 122 178 103 158 q 193 240 132 188 q 318 351 254 292 q 76 575 179 486 q 176 650 125 650 q 224 628 203 650 q 288 555 233 618 q 400 431 343 492 q 619 675 583 631 q 670 631 647 660 q 693 574 693 603 q 672 528 693 549 q 579 442 647 501 q 479 350 511 382 z "},"Ø":{"ha":1011,"x_min":44,"x_max":967,"o":"m 504 -14 q 314 19 397 -14 l 282 -37 q 243 -117 251 -93 q 179 -74 179 -110 q 214 3 179 -60 l 243 56 q 44 460 44 181 q 169 806 44 678 q 504 935 293 935 q 706 896 615 935 l 738 954 q 776 1033 751 979 q 840 990 840 1026 q 810 921 840 975 l 776 860 q 917 696 867 799 q 967 460 967 593 q 841 115 967 244 q 504 -14 715 -14 m 506 794 q 333 713 397 794 q 269 503 269 631 q 335 224 269 328 l 626 751 q 506 794 574 794 m 739 435 q 681 688 739 589 l 392 161 q 503 126 439 126 q 677 212 615 126 q 739 435 739 297 z "},"Ù":{"ha":946,"x_min":65,"x_max":886,"o":"m 635 107 q 501 18 576 50 q 358 -14 425 -14 q 152 48 228 -14 q 76 267 76 110 q 83 489 76 349 q 89 696 89 629 q 65 906 89 826 q 178 925 117 925 q 283 894 253 925 q 314 781 314 864 q 305 566 314 750 q 296 275 296 382 q 335 167 296 204 q 426 131 375 131 q 540 162 479 131 q 638 235 600 193 q 638 280 638 244 q 639 401 639 315 q 639 619 639 486 q 626 914 639 761 q 735 925 679 925 q 829 905 796 925 q 863 850 863 885 l 858 742 q 853 508 853 632 l 853 360 q 860 144 853 211 q 886 15 867 78 q 760 -4 835 -4 q 667 19 692 -4 q 635 107 642 43 m 294 1317 q 372 1243 322 1281 q 463 1181 422 1206 q 534 1127 503 1157 q 565 1071 565 1097 q 511 994 565 1033 q 374 1076 460 1032 q 245 1151 289 1119 q 201 1218 201 1182 q 294 1317 201 1272 z "},"Ú":{"ha":946,"x_min":65,"x_max":886,"o":"m 635 107 q 501 18 576 50 q 358 -14 425 -14 q 152 48 228 -14 q 76 267 76 110 q 83 489 76 349 q 89 696 89 629 q 65 906 89 826 q 178 925 117 925 q 283 894 253 925 q 314 781 314 864 q 305 566 314 750 q 296 275 296 382 q 335 167 296 204 q 426 131 375 131 q 540 162 479 131 q 638 235 600 193 q 638 280 638 244 q 639 401 639 315 q 639 619 639 486 q 626 914 639 761 q 735 925 679 925 q 829 905 796 925 q 863 850 863 885 l 858 742 q 853 508 853 632 l 853 360 q 860 144 853 211 q 886 15 867 78 q 760 -4 835 -4 q 667 19 692 -4 q 635 107 642 43 m 710 1142 q 556 1070 676 1121 q 410 994 435 1019 q 361 1065 361 1033 q 397 1119 361 1092 q 481 1167 433 1146 q 584 1224 528 1188 q 669 1300 640 1261 q 743 1204 743 1260 q 710 1142 743 1164 z "},"Û":{"ha":946,"x_min":65,"x_max":886,"o":"m 635 107 q 501 18 576 50 q 358 -14 425 -14 q 152 48 228 -14 q 76 267 76 110 q 83 489 76 349 q 89 696 89 629 q 65 906 89 826 q 178 925 117 925 q 283 894 253 925 q 314 781 314 864 q 305 566 314 750 q 296 275 296 382 q 335 167 296 204 q 426 131 375 131 q 540 162 479 131 q 638 235 600 193 q 638 280 638 244 q 639 401 639 315 q 639 619 639 486 q 626 914 639 761 q 735 925 679 925 q 829 905 796 925 q 863 850 863 885 l 858 742 q 853 508 853 632 l 853 360 q 860 144 853 211 q 886 15 867 78 q 760 -4 835 -4 q 667 19 692 -4 q 635 107 642 43 m 475 1267 q 703 1068 703 1142 q 678 1021 703 1044 q 617 989 654 997 q 547 1058 583 1028 q 492 1100 511 1089 l 472 1113 q 301 1000 335 1000 q 262 1010 278 1000 q 224 1053 246 1021 q 475 1267 338 1176 z "},"Ü":{"ha":946,"x_min":65,"x_max":886,"o":"m 635 107 q 501 18 576 50 q 358 -14 425 -14 q 152 48 228 -14 q 76 267 76 110 q 83 489 76 349 q 89 696 89 629 q 65 906 89 826 q 178 925 117 925 q 283 894 253 925 q 314 781 314 864 q 305 566 314 750 q 296 275 296 382 q 335 167 296 204 q 426 131 375 131 q 540 162 479 131 q 638 235 600 193 q 638 280 638 244 q 639 401 639 315 q 639 619 639 486 q 626 914 639 761 q 735 925 679 925 q 829 905 796 925 q 863 850 863 885 l 858 742 q 853 508 853 632 l 853 360 q 860 144 853 211 q 886 15 867 78 q 760 -4 835 -4 q 667 19 692 -4 q 635 107 642 43 m 626 990 q 537 1027 574 990 q 500 1121 500 1064 q 539 1213 500 1175 q 629 1250 578 1250 q 717 1213 681 1250 q 754 1121 754 1175 q 715 1027 754 1064 q 626 990 676 990 m 308 990 q 219 1027 256 990 q 182 1121 182 1064 q 221 1213 182 1175 q 311 1250 260 1250 q 399 1213 363 1250 q 436 1121 436 1175 q 397 1027 436 1064 q 308 990 358 990 z "},"Ý":{"ha":785,"x_min":-10,"x_max":779,"o":"m 414 543 q 520 753 463 618 q 579 935 578 889 q 779 831 779 914 q 770 797 779 818 q 741 743 761 775 q 703 684 721 711 q 652 613 685 657 q 603 546 619 568 q 550 476 586 524 q 506 418 514 429 l 506 282 q 539 15 506 126 q 413 -4 488 -4 q 367 -1 385 -4 q 328 13 349 3 q 299 49 308 24 q 289 115 289 75 q 290 215 289 142 q 292 321 292 288 l 292 408 q -10 833 89 790 q 139 929 61 929 q 267 842 217 929 q 414 543 310 764 m 650 1142 q 496 1070 617 1121 q 350 994 375 1019 q 301 1065 301 1033 q 338 1119 301 1092 q 421 1167 374 1146 q 524 1224 468 1188 q 610 1300 581 1261 q 683 1204 683 1260 q 650 1142 683 1164 z "},"Þ":{"ha":754,"x_min":60,"x_max":722,"o":"m 72 321 l 72 599 q 60 914 72 751 q 169 925 113 925 q 259 906 222 925 q 296 849 296 888 q 293 789 296 842 q 722 489 722 786 q 635 254 722 340 q 426 168 549 168 q 288 208 356 168 q 319 15 292 106 q 193 -4 268 -4 q 147 -1 165 -4 q 109 13 129 3 q 79 49 89 24 q 69 115 69 75 q 71 215 69 142 q 72 321 72 288 m 369 304 q 463 351 429 304 q 496 479 496 399 q 454 612 496 575 q 325 649 413 649 l 288 644 q 286 561 286 617 l 286 325 q 369 304 331 304 z "},"ß":{"ha":861,"x_min":58,"x_max":821,"o":"m 288 638 l 288 258 q 288 152 288 208 q 289 85 289 96 q 249 17 289 39 q 153 -4 210 -4 q 58 11 96 -4 q 86 285 86 104 l 86 644 q 143 807 86 739 q 281 905 200 875 q 453 935 361 935 q 637 892 561 935 q 713 775 713 849 q 697 697 713 731 q 660 645 682 664 q 617 612 639 626 q 581 581 596 597 q 565 547 565 565 q 592 485 565 514 q 656 431 618 456 q 731 379 693 407 q 794 306 768 351 q 821 206 821 261 q 747 55 821 124 q 571 -14 674 -14 q 424 21 483 -14 q 364 103 364 56 q 461 210 364 176 q 551 121 493 121 q 594 140 575 121 q 613 186 613 160 q 576 262 613 225 q 497 324 540 299 q 418 391 454 349 q 382 483 382 433 q 394 537 382 513 q 425 578 407 561 q 461 613 443 596 q 492 654 479 631 q 504 704 504 678 q 480 776 504 751 q 419 800 456 800 q 328 756 369 800 q 288 638 288 713 z "},"à":{"ha":686,"x_min":40,"x_max":636,"o":"m 178 436 q 56 540 56 458 q 135 635 56 596 q 328 674 215 674 q 543 618 474 674 q 613 433 613 563 q 611 351 613 422 q 610 246 610 281 q 636 7 610 86 q 528 -10 575 -10 q 411 71 428 -10 q 326 9 378 32 q 221 -14 274 -14 q 92 35 144 -14 q 40 182 40 85 q 72 296 40 260 q 157 350 103 332 q 407 392 263 383 q 388 510 407 476 q 310 544 369 544 q 235 515 275 544 q 178 436 196 486 m 406 292 q 342 279 364 285 q 294 262 319 274 q 258 231 268 250 q 247 185 247 213 q 264 133 247 150 q 306 115 281 115 q 403 150 364 115 q 401 192 401 163 q 406 292 401 242 m 157 1049 q 235 975 185 1013 q 325 913 285 938 q 397 859 365 889 q 428 803 428 829 q 374 726 428 765 q 237 808 322 764 q 108 883 151 851 q 64 950 64 914 q 157 1049 64 1004 z "},"á":{"ha":686,"x_min":40,"x_max":636,"o":"m 178 436 q 56 540 56 458 q 135 635 56 596 q 328 674 215 674 q 543 618 474 674 q 613 433 613 563 q 611 351 613 422 q 610 246 610 281 q 636 7 610 86 q 528 -10 575 -10 q 411 71 428 -10 q 326 9 378 32 q 221 -14 274 -14 q 92 35 144 -14 q 40 182 40 85 q 72 296 40 260 q 157 350 103 332 q 407 392 263 383 q 388 510 407 476 q 310 544 369 544 q 235 515 275 544 q 178 436 196 486 m 406 292 q 342 279 364 285 q 294 262 319 274 q 258 231 268 250 q 247 185 247 213 q 264 133 247 150 q 306 115 281 115 q 403 150 364 115 q 401 192 401 163 q 406 292 401 242 m 572 874 q 418 802 539 853 q 272 726 297 751 q 224 797 224 765 q 260 851 224 824 q 343 899 296 878 q 447 956 390 919 q 532 1032 503 993 q 606 936 606 992 q 572 874 606 896 z "},"â":{"ha":686,"x_min":40,"x_max":636,"o":"m 178 436 q 56 540 56 458 q 135 635 56 596 q 328 674 215 674 q 543 618 474 674 q 613 433 613 563 q 611 351 613 422 q 610 246 610 281 q 636 7 610 86 q 528 -10 575 -10 q 411 71 428 -10 q 326 9 378 32 q 221 -14 274 -14 q 92 35 144 -14 q 40 182 40 85 q 72 296 40 260 q 157 350 103 332 q 407 392 263 383 q 388 510 407 476 q 310 544 369 544 q 235 515 275 544 q 178 436 196 486 m 406 292 q 342 279 364 285 q 294 262 319 274 q 258 231 268 250 q 247 185 247 213 q 264 133 247 150 q 306 115 281 115 q 403 150 364 115 q 401 192 401 163 q 406 292 401 242 m 338 999 q 565 800 565 874 q 541 753 565 776 q 479 721 517 729 q 410 791 446 760 q 354 833 374 822 l 335 844 q 164 732 197 732 q 124 742 140 732 q 86 785 108 753 q 338 999 200 908 z "},"ã":{"ha":686,"x_min":40,"x_max":636,"o":"m 178 436 q 56 540 56 458 q 135 635 56 596 q 328 674 215 674 q 543 618 474 674 q 613 433 613 563 q 611 351 613 422 q 610 246 610 281 q 636 7 610 86 q 528 -10 575 -10 q 411 71 428 -10 q 326 9 378 32 q 221 -14 274 -14 q 92 35 144 -14 q 40 182 40 85 q 72 296 40 260 q 157 350 103 332 q 407 392 263 383 q 388 510 407 476 q 310 544 369 544 q 235 515 275 544 q 178 436 196 486 m 406 292 q 342 279 364 285 q 294 262 319 274 q 258 231 268 250 q 247 185 247 213 q 264 133 247 150 q 306 115 281 115 q 403 150 364 115 q 401 192 401 163 q 406 292 401 242 m 592 881 q 536 787 592 832 q 414 742 481 742 q 319 772 381 742 q 235 801 258 801 q 140 746 204 801 q 86 803 86 765 q 142 896 86 850 q 264 942 199 942 q 359 912 297 942 q 444 882 421 882 q 538 938 476 882 q 574 919 556 935 q 592 881 592 903 z "},"ä":{"ha":686,"x_min":40,"x_max":636,"o":"m 178 436 q 56 540 56 458 q 135 635 56 596 q 328 674 215 674 q 543 618 474 674 q 613 433 613 563 q 611 351 613 422 q 610 246 610 281 q 636 7 610 86 q 528 -10 575 -10 q 411 71 428 -10 q 326 9 378 32 q 221 -14 274 -14 q 92 35 144 -14 q 40 182 40 85 q 72 296 40 260 q 157 350 103 332 q 407 392 263 383 q 388 510 407 476 q 310 544 369 544 q 235 515 275 544 q 178 436 196 486 m 406 292 q 342 279 364 285 q 294 262 319 274 q 258 231 268 250 q 247 185 247 213 q 264 133 247 150 q 306 115 281 115 q 403 150 364 115 q 401 192 401 163 q 406 292 401 242 m 489 722 q 399 759 436 722 q 363 853 363 796 q 401 944 363 907 q 492 982 440 982 q 580 944 543 982 q 617 853 617 907 q 578 760 617 797 q 489 722 539 722 m 171 722 q 81 759 118 722 q 44 853 44 796 q 83 944 44 907 q 174 982 122 982 q 262 944 225 982 q 299 853 299 907 q 260 760 299 797 q 171 722 221 722 z "},"å":{"ha":686,"x_min":40,"x_max":636,"o":"m 178 436 q 56 540 56 458 q 135 635 56 596 q 328 674 215 674 q 543 618 474 674 q 613 433 613 563 q 611 351 613 422 q 610 246 610 281 q 636 7 610 86 q 528 -10 575 -10 q 411 71 428 -10 q 326 9 378 32 q 221 -14 274 -14 q 92 35 144 -14 q 40 182 40 85 q 72 296 40 260 q 157 350 103 332 q 407 392 263 383 q 388 510 407 476 q 310 544 369 544 q 235 515 275 544 q 178 436 196 486 m 406 292 q 342 279 364 285 q 294 262 319 274 q 258 231 268 250 q 247 185 247 213 q 264 133 247 150 q 306 115 281 115 q 403 150 364 115 q 401 192 401 163 q 406 292 401 242 m 338 750 q 222 794 267 750 q 176 911 176 839 q 222 1029 176 985 q 338 1074 267 1074 q 453 1029 410 1074 q 497 911 497 985 q 453 794 497 839 q 338 750 410 750 m 413 904 q 392 976 413 947 q 338 1004 371 1004 q 282 981 303 1004 q 261 918 261 957 q 282 847 261 875 q 338 819 303 819 q 393 842 374 819 q 413 904 413 865 z "},"æ":{"ha":1044,"x_min":40,"x_max":1004,"o":"m 740 542 q 653 497 690 542 q 614 364 615 451 q 669 369 653 367 q 715 378 685 371 q 758 397 744 385 q 782 430 771 408 q 793 483 793 451 q 778 524 793 506 q 740 542 763 542 m 306 115 q 431 165 367 115 q 403 290 407 221 q 321 273 349 281 q 270 243 293 265 q 247 185 247 221 q 264 133 247 150 q 306 115 281 115 m 751 674 q 929 622 854 674 q 1004 469 1004 571 q 710 264 1004 264 q 614 267 683 264 q 653 151 614 188 q 751 115 693 115 q 911 182 854 115 q 963 141 943 167 q 983 89 983 115 q 934 22 983 47 q 838 -8 885 -3 q 749 -14 792 -14 q 465 107 558 -14 q 221 -14 347 -14 q 92 35 144 -14 q 40 182 40 85 q 72 296 40 260 q 157 350 103 332 q 407 392 263 383 q 388 511 406 478 q 310 544 369 544 q 235 515 275 544 q 178 436 196 486 q 56 540 56 458 q 135 635 56 596 q 328 674 215 674 q 546 601 483 674 q 751 674 629 674 z "},"ç":{"ha":663,"x_min":40,"x_max":626,"o":"m 390 118 q 472 140 433 118 q 524 199 510 161 q 606 156 586 176 q 625 106 625 135 q 558 17 625 49 q 385 -14 492 -14 l 375 -14 q 369 -42 369 -36 q 389 -71 369 -57 q 431 -97 408 -85 q 474 -137 454 -110 q 493 -200 493 -164 q 428 -302 493 -254 q 271 -350 364 -350 q 198 -332 222 -350 q 174 -287 174 -314 q 208 -212 174 -250 q 256 -231 226 -231 q 297 -178 297 -231 q 266 -125 297 -150 q 235 -75 235 -100 q 256 4 235 -46 q 97 115 154 35 q 40 315 40 196 q 72 478 40 407 q 153 590 103 549 q 261 653 203 632 q 379 674 319 674 q 547 638 467 674 q 626 538 626 601 q 490 436 626 453 q 446 511 478 483 q 375 539 414 539 q 286 487 324 539 q 249 333 249 435 q 390 118 249 118 z "},"è":{"ha":683,"x_min":40,"x_max":643,"o":"m 390 674 q 568 622 493 674 q 643 469 643 571 q 349 264 643 264 q 253 267 322 264 q 292 151 253 188 q 390 115 332 115 q 550 182 493 115 q 602 141 582 167 q 622 89 622 115 q 573 22 622 47 q 477 -8 524 -3 q 388 -14 431 -14 q 138 70 235 -14 q 40 326 40 154 q 94 522 40 440 q 224 638 147 603 q 390 674 301 674 m 379 542 q 292 497 329 542 q 253 364 254 451 q 308 369 292 367 q 353 378 324 371 q 397 397 383 385 q 421 430 410 408 q 432 483 432 451 q 417 524 432 506 q 379 542 401 542 m 161 1049 q 239 975 189 1013 q 329 913 289 938 q 401 859 369 889 q 432 803 432 829 q 378 726 432 765 q 241 808 326 764 q 112 883 156 851 q 68 950 68 914 q 161 1049 68 1004 z "},"é":{"ha":683,"x_min":40,"x_max":643,"o":"m 390 674 q 568 622 493 674 q 643 469 643 571 q 349 264 643 264 q 253 267 322 264 q 292 151 253 188 q 390 115 332 115 q 550 182 493 115 q 602 141 582 167 q 622 89 622 115 q 573 22 622 47 q 477 -8 524 -3 q 388 -14 431 -14 q 138 70 235 -14 q 40 326 40 154 q 94 522 40 440 q 224 638 147 603 q 390 674 301 674 m 379 542 q 292 497 329 542 q 253 364 254 451 q 308 369 292 367 q 353 378 324 371 q 397 397 383 385 q 421 430 410 408 q 432 483 432 451 q 417 524 432 506 q 379 542 401 542 m 576 874 q 422 802 543 853 q 276 726 301 751 q 228 797 228 765 q 264 851 228 824 q 347 899 300 878 q 451 956 394 919 q 536 1032 507 993 q 610 936 610 992 q 576 874 610 896 z "},"ê":{"ha":683,"x_min":40,"x_max":643,"o":"m 390 674 q 568 622 493 674 q 643 469 643 571 q 349 264 643 264 q 253 267 322 264 q 292 151 253 188 q 390 115 332 115 q 550 182 493 115 q 602 141 582 167 q 622 89 622 115 q 573 22 622 47 q 477 -8 524 -3 q 388 -14 431 -14 q 138 70 235 -14 q 40 326 40 154 q 94 522 40 440 q 224 638 147 603 q 390 674 301 674 m 379 542 q 292 497 329 542 q 253 364 254 451 q 308 369 292 367 q 353 378 324 371 q 397 397 383 385 q 421 430 410 408 q 432 483 432 451 q 417 524 432 506 q 379 542 401 542 m 342 999 q 569 800 569 874 q 545 753 569 776 q 483 721 521 729 q 414 791 450 760 q 358 833 378 822 l 339 844 q 168 732 201 732 q 128 742 144 732 q 90 785 113 753 q 342 999 204 908 z "},"ë":{"ha":683,"x_min":40,"x_max":643,"o":"m 390 674 q 568 622 493 674 q 643 469 643 571 q 349 264 643 264 q 253 267 322 264 q 292 151 253 188 q 390 115 332 115 q 550 182 493 115 q 602 141 582 167 q 622 89 622 115 q 573 22 622 47 q 477 -8 524 -3 q 388 -14 431 -14 q 138 70 235 -14 q 40 326 40 154 q 94 522 40 440 q 224 638 147 603 q 390 674 301 674 m 379 542 q 292 497 329 542 q 253 364 254 451 q 308 369 292 367 q 353 378 324 371 q 397 397 383 385 q 421 430 410 408 q 432 483 432 451 q 417 524 432 506 q 379 542 401 542 m 493 722 q 403 759 440 722 q 367 853 367 796 q 406 944 367 907 q 496 982 444 982 q 584 944 547 982 q 621 853 621 907 q 582 760 621 797 q 493 722 543 722 m 175 722 q 85 759 122 722 q 49 853 49 796 q 88 944 49 907 q 178 982 126 982 q 266 944 229 982 q 303 853 303 907 q 264 760 303 797 q 175 722 225 722 z "},"ì":{"ha":357,"x_min":-87,"x_max":306,"o":"m 181 664 q 263 646 233 664 q 292 575 292 628 q 287 453 292 567 q 282 282 282 339 q 306 14 282 85 q 190 -4 247 -4 q 99 19 125 -4 q 74 86 74 42 q 76 190 74 108 q 78 321 78 272 q 68 646 78 519 q 181 664 121 664 m 6 1049 q 83 975 33 1013 q 174 913 133 938 q 245 859 214 889 q 276 803 276 829 q 222 726 276 765 q 85 808 171 764 q -44 883 0 851 q -87 950 -87 914 q 6 1049 -87 1004 z "},"í":{"ha":357,"x_min":68,"x_max":454,"o":"m 181 664 q 263 646 233 664 q 292 575 292 628 q 287 453 292 567 q 282 282 282 339 q 306 14 282 85 q 190 -4 247 -4 q 99 19 125 -4 q 74 86 74 42 q 76 190 74 108 q 78 321 78 272 q 68 646 78 519 q 181 664 121 664 m 421 874 q 267 802 388 853 q 121 726 146 751 q 72 797 72 765 q 108 851 72 824 q 192 899 144 878 q 295 956 239 919 q 381 1032 351 993 q 454 936 454 992 q 421 874 454 896 z "},"î":{"ha":357,"x_min":-65,"x_max":414,"o":"m 181 664 q 263 646 233 664 q 292 575 292 628 q 287 453 292 567 q 282 282 282 339 q 306 14 282 85 q 190 -4 247 -4 q 99 19 125 -4 q 74 86 74 42 q 76 190 74 108 q 78 321 78 272 q 68 646 78 519 q 181 664 121 664 m 186 999 q 414 800 414 874 q 390 753 414 776 q 328 721 365 729 q 258 791 294 760 q 203 833 222 822 l 183 844 q 13 732 46 732 q -27 742 -11 732 q -65 785 -43 753 q 186 999 49 908 z "},"ï":{"ha":357,"x_min":-107,"x_max":465,"o":"m 181 664 q 263 646 233 664 q 292 575 292 628 q 287 453 292 567 q 282 282 282 339 q 306 14 282 85 q 190 -4 247 -4 q 99 19 125 -4 q 74 86 74 42 q 76 190 74 108 q 78 321 78 272 q 68 646 78 519 q 181 664 121 664 m 338 722 q 248 759 285 722 q 211 853 211 796 q 250 944 211 907 q 340 982 289 982 q 428 944 392 982 q 465 853 465 907 q 426 760 465 797 q 338 722 388 722 m 19 722 q -70 759 -33 722 q -107 853 -107 796 q -68 944 -107 907 q 22 982 -29 982 q 110 944 74 982 q 147 853 147 907 q 108 760 147 797 q 19 722 69 722 z "},"ð":{"ha":760,"x_min":40,"x_max":715,"o":"m 106 875 q 100 918 100 897 q 118 958 100 946 q 182 969 136 969 q 400 918 294 969 l 528 1019 q 572 942 572 978 q 538 892 572 918 l 493 858 q 656 647 597 776 q 715 374 715 518 q 631 97 715 207 q 376 -14 546 -14 q 133 78 225 -14 q 40 322 40 169 q 128 571 40 475 q 331 667 217 667 q 472 622 426 667 q 378 776 432 721 l 264 692 q 211 765 211 728 q 243 813 211 790 q 286 840 254 819 q 106 875 213 875 m 504 303 q 469 474 504 408 q 375 540 435 540 q 279 488 313 540 q 246 342 246 436 q 281 183 246 246 q 375 119 315 119 q 470 169 436 119 q 504 303 504 219 z "},"ñ":{"ha":774,"x_min":54,"x_max":719,"o":"m 54 646 q 163 664 111 664 q 278 582 264 664 q 483 672 368 672 q 639 618 578 672 q 700 464 700 564 q 698 364 700 461 q 696 217 696 267 q 719 14 696 97 q 599 -4 660 -4 q 488 81 488 -4 q 492 265 488 131 q 496 426 496 399 q 473 512 496 483 q 414 540 450 540 q 285 472 356 540 q 288 215 288 294 q 294 1 288 93 q 213 -3 249 -3 q 74 64 74 -3 q 77 161 74 69 q 81 351 81 253 q 54 646 81 578 m 640 881 q 585 787 640 832 q 463 742 529 742 q 368 772 429 742 q 283 801 307 801 q 189 746 253 801 q 135 803 135 765 q 191 896 135 850 q 313 942 247 942 q 408 912 346 942 q 493 882 469 882 q 586 938 525 882 q 622 919 604 935 q 640 881 640 903 z "},"ò":{"ha":754,"x_min":40,"x_max":714,"o":"m 621 78 q 574 32 621 78 q 376 -14 528 -14 q 133 78 225 -14 q 40 322 40 169 q 133 578 40 482 q 376 674 225 674 q 621 578 528 674 q 714 322 714 482 q 621 78 714 169 m 507 294 q 472 470 507 400 q 376 540 438 540 q 283 483 317 540 q 249 333 249 426 q 283 181 249 242 q 376 121 317 121 q 473 169 439 121 q 507 294 507 217 m 196 1049 q 274 975 224 1013 q 364 913 324 938 q 435 859 404 889 q 467 803 467 829 q 413 726 467 765 q 276 808 361 764 q 147 883 190 851 q 103 950 103 914 q 196 1049 103 1004 z "},"ó":{"ha":754,"x_min":40,"x_max":714,"o":"m 621 78 q 574 32 621 78 q 376 -14 528 -14 q 133 78 225 -14 q 40 322 40 169 q 133 578 40 482 q 376 674 225 674 q 621 578 528 674 q 714 322 714 482 q 621 78 714 169 m 507 294 q 472 470 507 400 q 376 540 438 540 q 283 483 317 540 q 249 333 249 426 q 283 181 249 242 q 376 121 317 121 q 473 169 439 121 q 507 294 507 217 m 611 874 q 457 802 578 853 q 311 726 336 751 q 263 797 263 765 q 299 851 263 824 q 382 899 335 878 q 485 956 429 919 q 571 1032 542 993 q 644 936 644 992 q 611 874 644 896 z "},"ô":{"ha":754,"x_min":40,"x_max":714,"o":"m 621 78 q 574 32 621 78 q 376 -14 528 -14 q 133 78 225 -14 q 40 322 40 169 q 133 578 40 482 q 376 674 225 674 q 621 578 528 674 q 714 322 714 482 q 621 78 714 169 m 507 294 q 472 470 507 400 q 376 540 438 540 q 283 483 317 540 q 249 333 249 426 q 283 181 249 242 q 376 121 317 121 q 473 169 439 121 q 507 294 507 217 m 376 999 q 604 800 604 874 q 580 753 604 776 q 518 721 556 729 q 449 791 485 760 q 393 833 413 822 l 374 844 q 203 732 236 732 q 163 742 179 732 q 125 785 147 753 q 376 999 239 908 z "},"õ":{"ha":754,"x_min":40,"x_max":714,"o":"m 621 78 q 574 32 621 78 q 376 -14 528 -14 q 133 78 225 -14 q 40 322 40 169 q 133 578 40 482 q 376 674 225 674 q 621 578 528 674 q 714 322 714 482 q 621 78 714 169 m 507 294 q 472 470 507 400 q 376 540 438 540 q 283 483 317 540 q 249 333 249 426 q 283 181 249 242 q 376 121 317 121 q 473 169 439 121 q 507 294 507 217 m 631 881 q 575 787 631 832 q 453 742 519 742 q 358 772 419 742 q 274 801 297 801 q 179 746 243 801 q 125 803 125 765 q 181 896 125 850 q 303 942 238 942 q 398 912 336 942 q 483 882 460 882 q 576 938 515 882 q 613 919 594 935 q 631 881 631 903 z "},"ö":{"ha":754,"x_min":40,"x_max":714,"o":"m 621 78 q 574 32 621 78 q 376 -14 528 -14 q 133 78 225 -14 q 40 322 40 169 q 133 578 40 482 q 376 674 225 674 q 621 578 528 674 q 714 322 714 482 q 621 78 714 169 m 507 294 q 472 470 507 400 q 376 540 438 540 q 283 483 317 540 q 249 333 249 426 q 283 181 249 242 q 376 121 317 121 q 473 169 439 121 q 507 294 507 217 m 528 722 q 438 759 475 722 q 401 853 401 796 q 440 944 401 907 q 531 982 479 982 q 619 944 582 982 q 656 853 656 907 q 617 760 656 797 q 528 722 578 722 m 210 722 q 120 759 157 722 q 83 853 83 796 q 122 944 83 907 q 213 982 161 982 q 301 944 264 982 q 338 853 338 907 q 299 760 338 797 q 210 722 260 722 z "},"÷":{"ha":797,"x_min":88,"x_max":708,"o":"m 392 -8 q 317 22 347 -8 q 288 100 288 53 q 318 176 288 144 q 392 207 349 207 q 463 176 433 207 q 493 100 493 144 q 464 22 493 51 q 392 -8 435 -8 m 708 361 q 689 302 708 326 q 638 278 669 278 q 524 285 614 278 q 393 293 435 293 q 93 278 236 293 q 88 336 88 307 q 105 394 88 368 q 158 419 122 419 q 252 413 164 419 q 404 406 340 406 q 700 419 604 406 q 708 361 708 403 m 392 499 q 317 528 347 499 q 288 607 288 558 q 318 683 288 651 q 392 714 349 714 q 463 683 433 714 q 493 607 493 651 q 464 528 493 558 q 392 499 435 499 z "},"ø":{"ha":754,"x_min":40,"x_max":714,"o":"m 376 -14 q 239 10 303 -14 l 213 -39 q 174 -118 182 -94 q 110 -75 110 -111 q 144 1 110 -61 l 169 46 q 40 322 40 138 q 133 578 40 482 q 376 674 225 674 q 504 651 442 674 l 532 703 q 571 782 546 728 q 635 739 635 775 q 604 669 635 724 l 575 617 q 714 322 714 521 q 621 78 714 169 q 376 -14 528 -14 m 507 294 q 482 447 507 383 l 314 143 q 376 121 340 121 q 473 169 439 121 q 507 294 507 217 m 376 540 q 283 483 317 540 q 249 333 249 426 q 265 219 249 269 l 431 521 q 376 540 407 540 z "},"ù":{"ha":768,"x_min":54,"x_max":714,"o":"m 714 14 q 597 -4 646 -4 q 522 16 553 -4 q 488 75 490 36 q 268 -14 386 -14 q 72 182 72 -14 q 74 283 72 186 q 76 429 76 381 q 54 646 76 574 q 167 664 108 664 q 286 579 286 664 q 282 408 286 533 q 278 258 278 283 q 299 156 278 192 q 353 119 321 119 q 485 185 424 119 q 483 353 483 239 q 474 646 483 514 q 581 664 529 664 q 667 647 636 664 q 697 578 697 631 q 694 493 697 564 q 689 382 690 422 l 689 282 q 714 14 689 106 m 203 1049 q 281 975 231 1013 q 371 913 331 938 q 442 859 411 889 q 474 803 474 829 q 419 726 474 765 q 283 808 368 764 q 153 883 197 851 q 110 950 110 914 q 203 1049 110 1004 z "},"ú":{"ha":768,"x_min":54,"x_max":714,"o":"m 714 14 q 597 -4 646 -4 q 522 16 553 -4 q 488 75 490 36 q 268 -14 386 -14 q 72 182 72 -14 q 74 283 72 186 q 76 429 76 381 q 54 646 76 574 q 167 664 108 664 q 286 579 286 664 q 282 408 286 533 q 278 258 278 283 q 299 156 278 192 q 353 119 321 119 q 485 185 424 119 q 483 353 483 239 q 474 646 483 514 q 581 664 529 664 q 667 647 636 664 q 697 578 697 631 q 694 493 697 564 q 689 382 690 422 l 689 282 q 714 14 689 106 m 618 874 q 464 802 585 853 q 318 726 343 751 q 269 797 269 765 q 306 851 269 824 q 389 899 342 878 q 492 956 436 919 q 578 1032 549 993 q 651 936 651 992 q 618 874 651 896 z "},"û":{"ha":768,"x_min":54,"x_max":714,"o":"m 714 14 q 597 -4 646 -4 q 522 16 553 -4 q 488 75 490 36 q 268 -14 386 -14 q 72 182 72 -14 q 74 283 72 186 q 76 429 76 381 q 54 646 76 574 q 167 664 108 664 q 286 579 286 664 q 282 408 286 533 q 278 258 278 283 q 299 156 278 192 q 353 119 321 119 q 485 185 424 119 q 483 353 483 239 q 474 646 483 514 q 581 664 529 664 q 667 647 636 664 q 697 578 697 631 q 694 493 697 564 q 689 382 690 422 l 689 282 q 714 14 689 106 m 383 999 q 611 800 611 874 q 587 753 611 776 q 525 721 563 729 q 456 791 492 760 q 400 833 419 822 l 381 844 q 210 732 243 732 q 170 742 186 732 q 132 785 154 753 q 383 999 246 908 z "},"ü":{"ha":768,"x_min":54,"x_max":714,"o":"m 714 14 q 597 -4 646 -4 q 522 16 553 -4 q 488 75 490 36 q 268 -14 386 -14 q 72 182 72 -14 q 74 283 72 186 q 76 429 76 381 q 54 646 76 574 q 167 664 108 664 q 286 579 286 664 q 282 408 286 533 q 278 258 278 283 q 299 156 278 192 q 353 119 321 119 q 485 185 424 119 q 483 353 483 239 q 474 646 483 514 q 581 664 529 664 q 667 647 636 664 q 697 578 697 631 q 694 493 697 564 q 689 382 690 422 l 689 282 q 714 14 689 106 m 217 722 q 127 759 164 722 q 90 853 90 796 q 129 944 90 907 q 219 982 168 982 q 308 944 271 982 q 344 853 344 907 q 306 760 344 797 q 217 722 267 722 m 535 722 q 445 759 482 722 q 408 853 408 796 q 447 944 408 907 q 538 982 486 982 q 626 944 589 982 q 663 853 663 907 q 624 760 663 797 q 535 722 585 722 z "},"ý":{"ha":704,"x_min":0,"x_max":676,"o":"m 572 674 q 676 604 676 674 q 627 383 676 539 q 510 82 578 226 q 300 -285 413 -122 q 203 -347 258 -347 q 67 -262 132 -347 q 283 -17 183 -175 q 0 596 96 503 q 156 667 90 667 q 206 653 188 667 q 239 608 225 639 q 306 408 261 560 q 375 143 350 257 q 444 393 413 257 q 475 589 475 529 q 471 653 475 622 q 572 674 518 674 m 603 874 q 449 802 569 853 q 303 726 328 751 q 254 797 254 765 q 290 851 254 824 q 374 899 326 878 q 477 956 421 919 q 563 1032 533 993 q 636 936 636 992 q 603 874 636 896 z "},"þ":{"ha":740,"x_min":54,"x_max":700,"o":"m 167 1032 q 249 1014 219 1032 q 278 943 278 996 q 273 821 278 935 q 268 650 268 707 l 268 579 q 446 674 329 674 q 633 585 565 674 q 700 360 700 497 q 673 186 700 268 q 581 45 646 104 q 422 -14 515 -14 q 265 47 331 -14 q 266 -28 265 39 q 267 -120 267 -94 q 271 -197 268 -146 q 279 -281 274 -247 q 293 -340 285 -315 q 188 -351 246 -351 q 86 -333 113 -351 q 60 -272 60 -315 q 62 65 60 -136 q 64 346 64 267 l 64 689 q 54 1014 64 888 q 167 1032 107 1032 m 268 472 l 268 150 q 379 118 314 118 q 462 184 435 118 q 489 339 489 250 q 463 491 489 442 q 394 540 436 540 q 268 472 325 540 z "},"ÿ":{"ha":704,"x_min":0,"x_max":676,"o":"m 572 674 q 676 604 676 674 q 627 383 676 539 q 510 82 578 226 q 300 -285 413 -122 q 203 -347 258 -347 q 67 -262 132 -347 q 283 -17 183 -175 q 0 596 96 503 q 156 667 90 667 q 206 653 188 667 q 239 608 225 639 q 306 408 261 560 q 375 143 350 257 q 444 393 413 257 q 475 589 475 529 q 471 653 475 622 q 572 674 518 674 m 513 722 q 423 759 460 722 q 386 853 386 796 q 425 944 386 907 q 515 982 464 982 q 603 944 567 982 q 640 853 640 907 q 601 760 640 797 q 513 722 563 722 m 194 722 q 105 759 142 722 q 68 853 68 796 q 107 944 68 907 q 197 982 146 982 q 285 944 249 982 q 322 853 322 907 q 283 760 322 797 q 194 722 244 722 z "},"ı":{"ha":357,"x_min":68,"x_max":306,"o":"m 181 664 q 263 646 233 664 q 292 575 292 628 q 287 453 292 567 q 282 282 282 339 q 306 14 282 85 q 190 -4 247 -4 q 99 19 125 -4 q 74 86 74 42 q 76 190 74 108 q 78 321 78 272 q 68 646 78 519 q 181 664 121 664 z "},"Ł":{"ha":731,"x_min":-40,"x_max":731,"o":"m 19 258 q -40 322 -40 283 q -19 363 -40 346 l 97 451 l 97 599 q 85 914 97 751 q 194 925 138 925 q 284 907 247 925 q 321 850 321 889 q 317 757 321 838 q 311 619 313 676 q 447 736 374 671 q 508 674 508 714 q 488 632 508 651 l 311 494 l 311 293 q 322 142 311 186 q 422 139 383 139 q 714 171 649 139 q 731 75 731 129 q 694 13 731 28 q 547 -3 657 -3 q 163 0 215 -3 q 108 19 122 1 q 94 79 94 38 q 96 205 94 126 q 97 311 97 283 l 97 326 q 58 292 85 315 q 19 258 32 268 z "},"ł":{"ha":390,"x_min":-62,"x_max":457,"o":"m 193 1032 q 275 1014 246 1032 q 304 943 304 996 q 299 821 304 935 q 294 650 294 707 l 294 642 l 413 743 q 457 690 457 721 q 436 656 457 671 l 294 547 l 294 269 q 318 14 294 86 q 203 -4 260 -4 q 112 19 138 -4 q 86 86 86 42 q 88 183 86 108 q 90 306 90 258 l 90 388 q 42 345 79 378 q -18 294 4 313 q -62 349 -62 321 q -42 382 -62 365 l 90 482 l 90 689 q 81 1014 90 888 q 193 1032 133 1032 z "},"Œ":{"ha":1296,"x_min":44,"x_max":1268,"o":"m 504 -14 q 169 115 294 -14 q 44 460 44 244 q 169 806 44 678 q 504 935 293 935 q 629 913 567 935 q 982 925 800 925 q 1242 903 1182 925 q 1268 847 1268 893 q 1251 753 1268 793 q 942 782 1160 782 q 844 779 914 782 q 850 565 850 735 l 960 565 q 1124 574 1049 565 q 1132 515 1132 556 q 1108 444 1132 464 q 1024 424 1085 424 l 850 424 q 861 142 850 189 q 960 139 922 139 q 1251 171 1186 139 q 1268 75 1268 129 q 1231 13 1268 28 q 1085 -3 1194 -3 q 700 0 753 -3 q 650 15 663 3 q 504 -14 576 -14 m 635 311 l 635 589 q 631 749 635 672 q 506 794 575 794 q 333 713 397 794 q 269 503 269 631 q 291 324 269 406 q 367 185 313 243 q 503 126 422 126 q 633 165 579 126 q 634 235 633 186 q 635 311 635 285 z "},"œ":{"ha":1150,"x_min":40,"x_max":1110,"o":"m 846 542 q 758 497 796 542 q 719 364 721 451 q 774 369 758 367 q 820 378 790 371 q 863 397 850 385 q 888 430 876 408 q 899 483 899 451 q 883 524 899 506 q 846 542 868 542 m 507 294 q 472 470 507 400 q 376 540 438 540 q 283 483 317 540 q 249 333 249 426 q 283 181 249 242 q 376 121 317 121 q 473 169 439 121 q 507 294 507 217 m 857 674 q 1035 622 960 674 q 1110 469 1110 571 q 815 264 1110 264 q 719 267 789 264 q 759 151 719 188 q 857 115 799 115 q 1017 182 960 115 q 1069 141 1049 167 q 1089 89 1089 115 q 1040 22 1089 47 q 944 -8 990 -3 q 854 -14 897 -14 q 608 81 696 -14 q 376 -14 524 -14 q 133 78 225 -14 q 40 322 40 169 q 133 578 40 482 q 376 674 225 674 q 614 571 528 674 q 857 674 707 674 z "},"Š":{"ha":760,"x_min":40,"x_max":718,"o":"m 582 692 q 500 762 560 732 q 385 792 440 792 q 310 767 339 792 q 282 693 282 743 q 315 618 282 649 q 395 573 347 588 q 500 536 443 558 q 605 489 557 514 q 685 411 653 464 q 718 283 718 358 q 687 142 718 201 q 601 49 656 82 q 485 1 547 17 q 353 -14 424 -14 q 133 22 225 -14 q 40 117 40 58 q 64 186 40 160 q 144 243 88 213 q 249 162 179 194 q 383 129 318 129 q 474 156 439 129 q 508 238 508 182 q 463 322 508 290 q 354 374 418 354 q 226 420 290 393 q 117 510 163 447 q 72 671 72 572 q 103 794 72 742 q 185 877 133 847 q 299 921 238 907 q 433 935 361 935 q 629 901 547 935 q 711 808 711 868 q 677 740 711 772 q 582 692 643 708 m 407 989 q 254 1092 332 1029 q 176 1186 176 1154 q 256 1272 176 1232 q 320 1207 282 1239 q 383 1160 358 1175 l 410 1144 q 484 1208 461 1190 q 533 1241 507 1226 q 576 1256 558 1256 q 658 1203 610 1256 q 407 989 544 1079 z "},"š":{"ha":606,"x_min":36,"x_max":581,"o":"m 428 450 q 389 517 417 493 q 328 540 361 540 q 274 524 296 540 q 251 475 251 507 q 284 422 251 442 q 363 391 317 403 q 456 362 410 379 q 535 304 503 344 q 568 201 568 264 q 484 41 568 96 q 286 -14 400 -14 q 215 -10 250 -14 q 135 3 181 -7 q 63 40 90 14 q 36 103 36 65 q 149 219 36 178 q 201 144 163 169 q 283 119 240 119 q 376 186 376 119 q 327 238 376 218 q 219 272 278 258 q 112 331 161 285 q 63 456 63 378 q 147 614 63 554 q 336 674 231 674 q 434 663 385 674 q 524 623 483 653 q 564 550 564 593 q 530 485 564 513 q 428 450 496 458 m 329 721 q 176 824 254 761 q 99 918 99 886 q 178 1004 99 964 q 242 939 204 971 q 306 892 281 907 l 332 876 q 406 940 383 922 q 455 973 429 958 q 499 988 481 988 q 581 935 532 988 q 329 721 467 811 z "},"Ÿ":{"ha":785,"x_min":-10,"x_max":779,"o":"m 414 543 q 520 753 463 618 q 579 935 578 889 q 779 831 779 914 q 770 797 779 818 q 741 743 761 775 q 703 684 721 711 q 652 613 685 657 q 603 546 619 568 q 550 476 586 524 q 506 418 514 429 l 506 282 q 539 15 506 126 q 413 -4 488 -4 q 367 -1 385 -4 q 328 13 349 3 q 299 49 308 24 q 289 115 289 75 q 290 215 289 142 q 292 321 292 288 l 292 408 q -10 833 89 790 q 139 929 61 929 q 267 842 217 929 q 414 543 310 764 m 567 990 q 477 1027 514 990 q 440 1121 440 1064 q 479 1213 440 1175 q 569 1250 518 1250 q 658 1213 621 1250 q 694 1121 694 1175 q 656 1027 694 1064 q 567 990 617 990 m 249 990 q 159 1027 196 990 q 122 1121 122 1064 q 161 1213 122 1175 q 251 1250 200 1250 q 340 1213 303 1250 q 376 1121 376 1175 q 338 1027 376 1064 q 249 990 299 990 z "},"Ž":{"ha":788,"x_min":24,"x_max":769,"o":"m 746 900 q 769 847 769 876 q 739 772 769 815 q 428 356 550 517 q 278 161 306 194 l 250 129 q 347 131 313 129 q 725 175 579 139 q 751 74 751 115 q 640 0 751 10 q 401 -8 549 -8 q 49 8 186 -8 q 24 72 24 39 q 60 161 24 108 q 522 788 453 710 q 413 786 456 788 q 81 749 201 778 q 51 849 51 810 q 64 889 51 869 q 100 913 76 908 q 315 926 161 926 q 746 900 578 926 m 424 989 q 271 1092 349 1029 q 193 1186 193 1154 q 272 1272 193 1232 q 337 1207 299 1239 q 400 1160 375 1175 l 426 1144 q 501 1208 478 1190 q 549 1241 524 1226 q 593 1256 575 1256 q 675 1203 626 1256 q 424 989 561 1079 z "},"ž":{"ha":686,"x_min":22,"x_max":632,"o":"m 528 1 q 325 -8 450 -8 q 46 8 157 -8 q 22 79 22 38 q 53 151 22 121 l 415 529 q 353 532 374 532 q 63 488 210 532 q 50 574 50 532 q 93 638 53 622 q 249 654 133 654 q 610 626 464 654 q 632 563 632 604 q 608 499 632 522 l 240 110 l 250 110 q 596 165 390 110 q 613 83 613 124 q 599 36 613 54 q 571 13 586 18 q 528 1 556 7 m 354 721 q 201 824 279 761 q 124 918 124 886 q 203 1004 124 964 q 267 939 229 971 q 331 892 306 907 l 357 876 q 431 940 408 922 q 480 973 454 958 q 524 988 506 988 q 606 935 557 988 q 354 721 492 811 z "},"ƒ":{"ha":797,"x_min":-4,"x_max":744,"o":"m 460 503 l 443 181 q 424 43 439 101 q 376 -65 408 -15 q 284 -141 343 -115 q 142 -167 225 -167 q -4 -92 -4 -167 q 30 -24 -4 -54 q 132 13 64 6 q 172 -53 143 -53 q 217 -14 206 -53 q 235 115 228 25 l 260 508 l 160 501 q 153 532 153 519 q 215 582 153 578 l 265 585 q 302 748 272 678 q 376 858 332 818 q 472 917 421 897 q 581 936 524 936 q 744 853 744 936 q 601 750 744 775 q 550 815 589 815 q 490 775 506 815 q 468 654 474 735 l 464 596 q 654 615 600 607 q 663 571 663 599 q 637 515 663 528 q 558 501 611 501 q 460 503 493 501 z "},"ˆ":{"ha":485,"x_min":-1,"x_max":478,"o":"m 250 999 q 478 800 478 874 q 453 753 478 776 q 392 721 429 729 q 322 791 358 760 q 267 833 286 822 l 247 844 q 76 732 110 732 q 37 742 53 732 q -1 785 21 753 q 250 999 113 908 z "},"ˇ":{"ha":488,"x_min":24,"x_max":506,"o":"m 254 721 q 101 824 179 761 q 24 918 24 886 q 103 1004 24 964 q 167 939 129 971 q 231 892 206 907 l 257 876 q 331 940 308 922 q 380 973 354 958 q 424 988 406 988 q 506 935 457 988 q 254 721 392 811 z "},"˘":{"ha":489,"x_min":0,"x_max":489,"o":"m 164 917 q 178 902 164 917 q 244 888 192 888 q 325 917 297 888 q 368 1010 353 947 q 489 940 489 1004 q 420 809 489 876 q 244 742 351 742 q 69 809 138 742 q 0 940 0 876 q 121 1010 0 1004 q 164 917 136 947 z "},"˙":{"ha":254,"x_min":0,"x_max":254,"o":"m 126 722 q 37 759 74 722 q 0 853 0 796 q 39 944 0 907 q 129 982 78 982 q 217 944 181 982 q 254 853 254 907 q 215 760 254 797 q 126 722 176 722 z "},"˚":{"ha":321,"x_min":14,"x_max":335,"o":"m 175 750 q 59 794 104 750 q 14 911 14 839 q 59 1029 14 985 q 175 1074 104 1074 q 291 1029 247 1074 q 335 911 335 985 q 291 794 335 839 q 175 750 247 750 m 250 904 q 229 976 250 947 q 175 1004 208 1004 q 119 981 140 1004 q 99 918 99 957 q 119 847 99 875 q 175 819 140 819 q 231 842 211 819 q 250 904 250 865 z "},"˛":{"ha":618,"x_min":178,"x_max":542,"o":"m 381 21 l 488 10 q 388 -74 425 -22 q 351 -169 351 -126 q 392 -219 351 -219 q 437 -205 413 -219 q 476 -168 461 -190 q 542 -243 542 -203 q 491 -309 542 -286 q 369 -332 440 -332 q 228 -292 278 -332 q 178 -193 178 -253 q 231 -72 178 -131 q 381 21 283 -12 z "},"˜":{"ha":506,"x_min":0,"x_max":506,"o":"m 506 894 q 450 801 506 846 q 328 756 394 756 q 233 785 294 756 q 149 815 172 815 q 54 760 118 815 q 0 817 0 779 q 56 910 0 864 q 178 956 113 956 q 273 926 211 956 q 358 896 335 896 q 451 951 390 896 q 488 933 469 949 q 506 894 506 917 z "},"˝":{"ha":696,"x_min":7,"x_max":683,"o":"m 643 878 q 515 798 607 851 q 403 726 424 744 q 344 793 344 758 q 373 841 344 819 q 468 912 401 863 q 597 1028 535 961 q 683 936 683 988 q 643 878 683 901 m 306 878 q 178 798 269 851 q 65 726 86 744 q 7 793 7 758 q 35 841 7 819 q 131 912 64 863 q 260 1028 197 961 q 346 936 346 988 q 306 878 346 901 z "},"π":{"ha":799,"x_min":8,"x_max":781,"o":"m 144 532 q 24 507 75 529 q 8 575 8 538 q 27 638 8 613 q 85 663 46 663 l 139 661 q 302 660 192 661 q 551 660 413 660 q 768 686 699 660 q 781 618 781 651 q 707 531 781 531 l 642 531 q 633 235 633 376 l 633 204 q 658 14 633 88 q 543 -4 610 -4 q 426 83 426 -4 q 428 194 426 103 q 431 339 431 286 q 432 533 431 483 l 344 533 l 344 339 q 347 200 344 286 q 349 94 349 114 q 346 57 349 71 q 333 27 343 43 q 299 3 324 11 q 236 -4 275 -4 q 133 14 169 -4 q 154 192 154 78 q 152 351 154 272 q 147 477 150 429 q 144 532 144 525 z "},"–":{"ha":826,"x_min":42,"x_max":785,"o":"m 785 378 q 756 311 785 336 q 681 286 728 286 q 569 291 650 286 q 443 296 488 296 l 296 296 q 51 274 186 296 q 42 353 42 322 q 67 417 42 390 q 146 444 92 444 q 247 440 164 444 q 379 436 329 436 l 544 436 q 771 457 668 436 q 785 378 785 415 z "},"—":{"ha":1219,"x_min":42,"x_max":1178,"o":"m 1178 378 q 1149 311 1178 336 q 1074 286 1121 286 q 962 291 1043 286 q 836 296 881 296 l 296 296 q 51 274 186 296 q 42 353 42 322 q 67 417 42 390 q 146 444 92 444 q 244 440 164 444 q 375 436 325 436 l 938 436 q 1164 457 1061 436 q 1178 378 1178 415 z "},"‘":{"ha":318,"x_min":18,"x_max":299,"o":"m 272 722 q 238 643 272 674 q 149 613 204 613 q 52 657 86 613 q 18 769 18 701 q 82 947 18 867 q 247 1028 146 1028 q 299 974 299 1028 q 296 944 299 967 l 289 944 q 224 915 251 944 q 196 851 196 885 q 258 785 196 794 q 272 722 272 756 z "},"’":{"ha":388,"x_min":44,"x_max":325,"o":"m 71 918 q 105 997 71 967 q 194 1028 139 1028 q 291 983 257 1028 q 325 871 325 939 q 261 693 325 774 q 96 613 197 613 q 44 667 44 613 q 47 696 44 674 l 54 696 q 119 726 92 696 q 147 789 147 756 q 85 856 147 846 q 71 918 71 885 z "},"‚":{"ha":350,"x_min":46,"x_max":326,"o":"m 72 79 q 106 158 72 128 q 196 189 140 189 q 292 144 258 189 q 326 32 326 100 q 263 -146 326 -65 q 97 -226 199 -226 q 46 -172 46 -226 q 49 -143 46 -165 l 56 -143 q 121 -113 93 -143 q 149 -50 149 -83 q 86 17 149 7 q 72 79 72 46 z "},"“":{"ha":701,"x_min":26,"x_max":665,"o":"m 281 722 q 247 643 281 674 q 157 613 213 613 q 60 657 94 613 q 26 769 26 701 q 90 947 26 867 q 256 1028 154 1028 q 307 974 307 1028 q 304 944 307 967 l 297 944 q 232 915 260 944 q 204 851 204 885 q 267 785 204 794 q 281 722 281 756 m 639 722 q 605 643 639 674 q 515 613 571 613 q 419 657 453 613 q 385 769 385 701 q 449 947 385 867 q 614 1028 513 1028 q 665 974 665 1028 q 663 944 665 967 l 656 944 q 590 915 618 944 q 563 851 563 885 q 625 785 563 794 q 639 722 639 756 z "},"”":{"ha":740,"x_min":67,"x_max":699,"o":"m 93 918 q 127 997 93 967 q 217 1028 161 1028 q 313 983 279 1028 q 347 871 347 939 q 283 693 347 774 q 118 613 219 613 q 67 667 67 613 q 69 696 67 674 l 76 696 q 142 726 114 696 q 169 789 169 756 q 107 856 169 846 q 93 918 93 885 m 444 918 q 478 997 444 967 q 568 1028 513 1028 q 665 983 631 1028 q 699 871 699 939 q 635 693 699 774 q 469 613 571 613 q 418 667 418 613 q 421 696 418 674 l 428 696 q 493 726 465 696 q 521 789 521 756 q 458 856 521 846 q 444 918 444 885 z "},"„":{"ha":700,"x_min":24,"x_max":656,"o":"m 50 79 q 84 158 50 128 q 174 189 118 189 q 270 144 236 189 q 304 32 304 100 q 240 -146 304 -65 q 75 -226 176 -226 q 24 -172 24 -226 q 26 -143 24 -165 l 33 -143 q 99 -113 71 -143 q 126 -50 126 -83 q 64 17 126 7 q 50 79 50 46 m 401 79 q 435 158 401 128 q 525 189 469 189 q 622 144 588 189 q 656 32 656 100 q 592 -146 656 -65 q 426 -226 528 -226 q 375 -172 375 -226 q 378 -143 375 -165 l 385 -143 q 450 -113 422 -143 q 478 -50 478 -83 q 415 17 478 7 q 401 79 401 46 z "},"†":{"ha":704,"x_min":40,"x_max":663,"o":"m 256 713 q 238 926 256 731 q 354 935 296 935 q 468 926 406 935 q 450 713 451 738 q 650 746 546 714 q 663 668 663 706 q 582 569 663 569 q 518 574 558 569 q 449 578 478 578 q 459 226 453 361 q 469 45 465 90 q 474 -12 474 0 q 443 -70 474 -36 q 382 -125 413 -104 l 351 -147 q 318 -123 338 -137 q 265 -72 299 -108 q 232 -12 232 -36 q 236 45 232 0 q 247 226 240 90 q 257 579 253 361 q 138 571 204 578 q 47 563 71 564 q 40 629 40 594 q 117 731 40 731 q 184 722 136 731 q 256 713 232 714 z "},"‡":{"ha":703,"x_min":40,"x_max":663,"o":"m 451 208 q 567 217 503 210 q 656 225 631 224 q 663 158 663 193 q 586 57 663 57 q 519 65 567 57 q 447 75 471 74 q 465 -139 447 57 q 349 -147 407 -147 q 235 -139 297 -147 q 253 75 251 50 q 53 42 157 74 q 40 119 40 82 q 121 218 40 218 q 185 214 144 218 q 254 210 225 210 q 236 394 236 386 q 257 579 236 408 q 138 571 204 578 q 47 563 71 564 q 40 629 40 594 q 117 731 40 731 q 184 722 136 731 q 256 713 232 714 q 238 926 256 731 q 354 935 296 935 q 468 926 406 935 q 450 713 451 738 q 650 746 546 714 q 663 668 663 706 q 582 569 663 569 q 518 574 558 569 q 449 578 478 578 q 469 394 469 411 q 451 208 469 385 z "},"•":{"ha":478,"x_min":22,"x_max":456,"o":"m 393 210 q 362 179 393 210 q 240 147 331 147 q 86 210 150 147 q 22 372 22 274 q 87 534 22 468 q 240 600 151 600 q 392 534 329 600 q 456 372 456 468 q 393 210 456 274 z "},"…":{"ha":1269,"x_min":38,"x_max":1233,"o":"m 164 -14 q 74 23 111 -14 q 38 117 38 60 q 76 208 38 171 q 167 246 115 246 q 255 208 218 246 q 292 117 292 171 q 253 24 292 61 q 164 -14 214 -14 m 636 -14 q 547 23 583 -14 q 510 117 510 60 q 549 208 510 171 q 639 246 588 246 q 727 208 690 246 q 764 117 764 171 q 725 24 764 61 q 636 -14 686 -14 m 1106 -14 q 1016 23 1053 -14 q 979 117 979 60 q 1018 208 979 171 q 1108 246 1057 246 q 1197 208 1160 246 q 1233 117 1233 171 q 1194 24 1233 61 q 1106 -14 1156 -14 z "},"‰":{"ha":1817,"x_min":44,"x_max":1771,"o":"m 1535 -14 q 1360 49 1425 -14 q 1296 217 1296 111 q 1360 385 1296 324 q 1535 447 1425 447 q 1707 385 1643 447 q 1771 217 1771 322 q 1707 49 1771 111 q 1535 -14 1643 -14 m 1607 207 q 1588 303 1607 261 q 1535 346 1569 346 q 1480 314 1501 346 q 1458 233 1458 282 q 1478 133 1458 176 q 1533 89 1497 89 q 1587 122 1567 89 q 1607 207 1607 156 m 944 -14 q 770 49 835 -14 q 706 217 706 111 q 770 385 706 324 q 944 447 835 447 q 1117 385 1053 447 q 1181 217 1181 322 q 1117 49 1181 111 q 944 -14 1053 -14 m 1017 207 q 998 303 1017 261 q 944 346 979 346 q 890 314 911 346 q 868 233 868 282 q 888 133 868 176 q 943 89 907 89 q 997 122 976 89 q 1017 207 1017 156 m 303 61 l 626 574 q 864 971 769 799 q 926 951 899 969 q 954 907 954 933 q 940 865 954 886 l 617 351 q 378 -46 490 151 q 286 14 292 -28 q 303 61 286 38 m 283 463 q 109 525 174 463 q 44 693 44 588 q 109 862 44 800 q 283 924 174 924 q 456 861 392 924 q 519 693 519 799 q 456 525 519 588 q 283 463 392 463 m 356 683 q 337 780 356 738 q 283 822 318 822 q 228 790 250 822 q 207 710 207 758 q 226 609 207 653 q 282 565 246 565 q 335 599 315 565 q 356 683 356 632 z "},"‹":{"ha":444,"x_min":36,"x_max":390,"o":"m 253 326 q 344 201 299 271 q 390 111 390 132 q 292 33 390 69 q 36 326 188 121 q 290 619 189 536 q 370 573 351 592 q 389 533 389 554 q 345 449 389 514 q 253 326 301 385 z "},"›":{"ha":444,"x_min":36,"x_max":390,"o":"m 174 326 q 81 449 125 385 q 38 533 38 514 q 56 573 38 554 q 136 619 75 592 q 390 326 238 536 q 135 33 239 121 q 36 111 36 69 q 82 201 36 132 q 174 326 128 271 z "},"⁄":{"ha":485,"x_min":-92,"x_max":542,"o":"m -79 -53 l 247 606 q 444 1026 383 879 q 511 1010 481 1026 q 542 965 542 994 q 500 868 542 953 q 458 783 472 811 q 430 726 444 754 q 355 577 415 697 q 200 268 294 457 q 6 -151 67 -3 q -63 -136 -35 -151 q -92 -92 -92 -121 q -79 -53 -92 -75 z "},"€":{"ha":797,"x_min":36,"x_max":813,"o":"m 760 753 q 600 804 690 804 q 438 738 497 804 q 358 569 378 672 l 404 569 q 726 581 604 569 l 731 550 q 676 493 731 493 l 350 493 q 349 461 349 482 q 350 417 349 432 l 404 417 q 726 428 604 417 l 731 397 q 676 340 731 340 l 363 340 q 440 184 385 244 q 589 124 496 124 q 747 181 667 124 q 794 132 776 160 q 813 83 813 104 q 751 10 813 33 q 604 -12 689 -12 q 299 83 415 -12 q 151 339 183 178 q 43 329 94 336 q 36 364 36 353 q 90 417 36 417 l 140 417 q 139 464 139 432 l 139 492 q 43 482 104 490 q 36 517 36 506 q 90 569 36 569 l 147 569 q 297 835 178 735 q 604 935 417 935 q 813 853 813 935 q 760 753 813 792 z "},"™":{"ha":1303,"x_min":90,"x_max":1243,"o":"m 1226 767 l 1226 558 q 1243 413 1226 471 q 1171 403 1207 403 q 1076 458 1076 403 q 1077 545 1076 485 q 1078 671 1078 606 q 1000 410 1038 561 q 924 403 961 403 q 836 436 847 403 q 807 528 824 475 q 778 619 790 582 q 754 682 765 657 l 754 558 q 771 413 754 471 q 706 403 742 403 q 625 458 625 403 q 625 502 625 468 q 626 606 625 536 q 626 772 626 675 q 614 903 626 840 q 704 911 656 911 q 806 860 778 911 q 919 563 861 751 q 1033 861 969 731 q 1079 898 1046 885 q 1150 911 1113 911 q 1239 900 1206 911 q 1226 767 1226 847 m 144 906 l 350 906 q 535 910 490 906 q 546 865 546 892 q 533 817 546 838 q 494 797 521 797 l 393 797 l 393 563 q 411 418 393 471 q 326 404 368 404 q 243 472 243 404 l 243 797 q 100 792 144 797 q 90 840 90 817 q 144 906 90 906 z "},"Ω":{"ha":1196,"x_min":40,"x_max":1156,"o":"m 599 942 q 935 823 799 942 q 1071 515 1071 704 q 1000 288 1071 378 q 794 131 929 197 l 1019 131 q 1093 265 1050 174 q 1117 271 1107 271 q 1156 239 1156 271 q 1118 0 1156 188 l 768 0 q 667 92 667 0 q 669 139 667 108 q 842 501 842 261 q 778 733 840 650 q 597 815 715 815 q 417 732 481 815 q 353 501 354 649 q 526 139 353 261 q 531 92 531 118 q 428 0 531 0 l 79 0 q 55 132 69 44 q 40 239 40 219 q 81 271 40 271 q 103 265 89 271 q 176 131 154 161 l 403 131 q 194 288 265 197 q 124 515 124 378 q 260 823 124 704 q 599 942 397 942 z "},"∂":{"ha":738,"x_min":44,"x_max":683,"o":"m 372 453 q 288 389 322 453 q 254 233 254 325 q 271 151 254 183 q 319 119 288 119 q 429 198 390 119 q 474 383 468 276 q 372 453 424 453 m 135 771 q 111 863 111 832 q 238 935 111 935 q 349 921 292 935 q 467 872 406 907 q 576 783 529 836 q 653 643 622 729 q 683 449 683 557 q 663 283 683 363 q 600 136 642 204 q 485 27 558 68 q 315 -14 411 -14 q 114 64 183 -14 q 44 253 44 142 q 116 492 44 399 q 293 585 188 585 q 476 508 388 585 q 423 720 474 644 q 281 796 372 796 q 135 771 219 796 z "},"∆":{"ha":946,"x_min":36,"x_max":910,"o":"m 431 649 l 221 165 q 439 156 293 156 q 636 163 579 156 l 431 649 m 849 0 l 97 0 q 36 65 36 0 q 385 858 307 664 q 479 896 399 896 q 553 889 511 896 q 740 455 593 796 q 910 67 888 114 q 849 0 910 0 z "},"∏":{"ha":1035,"x_min":18,"x_max":1031,"o":"m 1031 863 q 978 786 1031 786 q 829 792 976 786 q 826 735 829 785 q 820 626 822 686 q 818 511 818 567 l 818 282 q 843 14 818 100 q 793 2 831 8 q 732 -4 756 -4 q 626 18 651 -4 q 600 86 600 40 q 601 190 600 108 q 603 321 603 272 l 603 794 l 578 794 q 410 793 453 794 l 410 321 q 411 188 410 272 q 413 82 413 104 q 387 17 413 38 q 288 -4 361 -4 q 185 13 218 -4 q 208 282 208 97 l 208 531 q 206 638 208 582 q 201 739 204 693 q 197 792 197 785 q 29 774 93 788 q 18 847 18 803 q 36 907 18 892 q 97 922 54 922 q 229 921 125 922 q 392 919 333 919 l 656 919 q 1026 928 869 919 q 1031 863 1031 900 z "},"∑":{"ha":874,"x_min":22,"x_max":828,"o":"m 68 921 l 774 921 q 814 700 814 742 q 764 665 814 665 q 744 667 753 665 q 678 815 706 775 l 290 815 l 449 544 q 465 486 465 515 q 451 438 465 461 l 238 76 l 701 76 q 758 211 724 115 q 778 213 767 213 q 828 178 828 213 q 813 57 828 160 q 788 -86 797 -46 l 43 -86 q 29 -79 35 -86 q 22 -64 24 -72 l 22 -57 l 315 422 l 38 882 q 46 910 38 899 q 68 921 54 921 z "},"−":{"ha":797,"x_min":94,"x_max":701,"o":"m 701 361 q 682 302 701 326 q 631 278 663 278 q 524 285 607 278 q 400 293 442 293 q 100 278 243 293 q 94 336 94 307 q 112 394 94 368 q 165 419 129 419 q 259 413 171 419 q 411 406 347 406 q 693 419 597 406 q 701 361 701 403 z "},"√":{"ha":786,"x_min":26,"x_max":747,"o":"m 282 686 l 488 243 l 635 1021 q 682 1025 663 1025 q 747 983 747 1025 q 557 11 747 975 q 525 -36 549 -28 q 439 -44 501 -44 l 426 -44 l 149 554 q 56 506 124 544 q 36 524 46 510 q 26 549 26 538 q 42 579 26 568 q 142 635 72 603 q 282 686 211 667 z "},"∞":{"ha":979,"x_min":10,"x_max":968,"o":"m 846 367 q 814 445 846 418 q 733 472 782 472 q 572 378 664 472 l 561 367 q 732 257 657 257 q 815 287 783 257 q 846 367 846 317 m 247 257 q 421 354 324 257 q 387 394 408 372 q 322 444 365 417 q 239 472 278 472 q 163 440 192 472 q 133 357 133 407 q 166 285 133 314 q 247 257 199 257 m 242 585 q 370 547 313 585 q 492 438 428 508 q 568 510 540 486 q 646 560 596 535 q 746 585 696 585 q 905 522 842 585 q 968 364 968 458 q 898 201 968 261 q 732 140 828 140 q 616 174 672 140 q 488 282 560 207 q 365 180 425 218 q 236 142 306 142 q 75 205 140 142 q 10 361 10 268 q 76 521 10 457 q 242 585 143 585 z "},"∫":{"ha":619,"x_min":-28,"x_max":647,"o":"m 196 578 q 290 908 196 789 q 522 1026 383 1026 q 615 1003 583 1026 q 647 946 647 981 q 621 887 647 914 q 551 853 594 860 q 515 901 538 879 q 471 922 493 922 q 410 742 410 922 q 415 469 410 653 q 421 214 421 285 q 393 3 421 94 q 318 -140 365 -87 q 215 -217 271 -192 q 96 -243 158 -243 q 3 -219 35 -243 q -28 -161 -28 -196 q 1 -97 -28 -126 q 75 -61 29 -68 q 106 -124 90 -110 q 147 -139 121 -139 q 218 63 218 -139 q 207 317 218 144 q 196 578 196 489 z "},"≈":{"ha":797,"x_min":4,"x_max":793,"o":"m 793 190 q 735 83 793 147 q 604 19 676 19 q 493 43 551 19 q 392 96 435 67 q 299 149 349 125 q 213 172 249 172 q 146 144 178 172 q 76 56 114 117 q 4 131 4 86 q 69 244 4 190 q 199 297 133 297 q 316 273 254 297 q 421 219 378 249 q 510 166 464 190 q 585 142 556 142 q 650 171 619 142 q 717 268 681 200 q 793 190 793 246 m 793 510 q 735 403 793 467 q 604 339 676 339 q 493 363 551 339 q 392 415 435 386 q 299 468 349 444 q 213 492 249 492 q 146 464 178 492 q 76 375 114 436 q 4 450 4 406 q 69 563 4 510 q 199 617 133 617 q 316 592 254 617 q 421 539 378 568 q 510 485 464 510 q 585 461 556 461 q 650 490 619 461 q 717 588 681 519 q 793 510 793 565 z "},"≠":{"ha":797,"x_min":93,"x_max":704,"o":"m 704 501 q 685 442 704 467 q 633 418 665 418 q 552 424 611 418 q 472 431 493 429 l 386 274 l 413 274 q 697 288 601 274 q 704 229 704 260 q 685 170 704 194 q 633 146 665 146 q 525 153 610 146 q 399 161 440 161 q 322 160 346 161 l 243 17 q 204 -62 213 -39 q 140 -19 140 -56 q 175 57 140 -6 l 231 157 q 99 146 168 154 q 93 204 93 175 q 110 262 93 236 q 164 288 128 288 q 191 286 172 288 q 240 282 210 285 q 297 278 271 279 l 383 433 q 99 418 222 432 q 93 476 93 447 q 110 534 93 508 q 164 560 128 560 q 258 553 169 560 q 413 546 347 546 l 446 546 l 531 697 q 569 776 544 722 q 633 733 633 769 q 603 664 633 718 l 538 547 q 697 560 656 553 q 704 501 704 532 z "},"≤":{"ha":797,"x_min":156,"x_max":631,"o":"m 317 440 l 600 254 q 558 206 585 225 q 503 186 531 186 q 453 208 476 186 l 165 440 l 451 685 q 501 707 478 707 q 558 686 531 707 q 599 639 586 665 l 317 440 m 631 79 q 611 20 631 44 q 560 -4 592 -4 q 480 3 542 -4 q 386 11 418 11 q 161 -4 268 11 q 156 54 156 25 q 173 112 156 86 q 226 138 190 138 q 297 131 231 138 q 411 124 364 124 q 624 138 553 124 q 631 79 631 121 z "},"≥":{"ha":797,"x_min":167,"x_max":642,"o":"m 197 256 l 481 442 l 199 640 q 239 688 211 667 q 296 708 267 708 q 346 686 319 708 l 632 442 l 344 210 q 294 188 321 188 q 240 207 267 188 q 197 256 213 226 m 167 79 q 174 138 167 121 q 386 124 244 124 q 500 131 433 124 q 571 138 567 138 q 624 112 607 138 q 642 54 642 86 q 636 -4 642 25 q 411 11 529 11 q 317 3 379 11 q 238 -4 256 -4 q 186 20 206 -4 q 167 79 167 44 z "},"◊":{"ha":678,"x_min":19,"x_max":658,"o":"m 521 476 l 339 818 l 158 476 l 339 135 l 521 476 m 19 476 l 261 924 q 339 953 276 953 q 417 924 400 953 l 658 476 l 414 25 q 339 0 400 0 q 261 31 278 0 l 19 476 z "},"":{"ha":797,"x_min":89,"x_max":706,"o":"m 564 593 q 443 678 529 665 l 443 481 q 496 464 483 468 q 545 446 508 460 q 597 422 582 432 q 638 392 613 413 q 675 352 664 372 q 696 301 686 332 q 706 236 706 271 q 635 64 706 126 q 449 -11 564 1 q 456 -93 450 -42 l 425 -97 q 365 -43 371 -97 l 365 -12 q 285 -6 326 -11 q 197 12 244 0 q 119 47 149 24 q 89 103 89 71 q 203 206 89 167 q 269 133 225 158 q 365 106 314 108 l 365 315 q 291 340 317 331 q 223 371 265 349 q 158 419 181 393 q 119 487 136 444 q 101 583 101 529 q 176 737 101 682 q 364 804 251 792 q 357 899 363 843 q 392 907 374 907 q 443 853 443 907 l 443 807 q 618 774 546 804 q 690 694 690 744 q 564 593 690 613 m 513 211 q 446 286 513 257 l 446 119 q 513 211 513 149 m 299 593 q 365 510 299 542 l 365 672 q 299 593 299 649 z "},"":{"ha":686,"x_min":40,"x_max":636,"o":"m 476 790 q 396 824 429 790 q 363 908 363 857 q 397 991 363 957 q 479 1025 432 1025 q 558 992 525 1025 q 592 908 592 958 q 556 824 592 858 q 476 790 521 790 m 185 790 q 104 824 138 790 q 71 908 71 857 q 106 991 71 957 q 188 1025 140 1025 q 267 992 233 1025 q 300 908 300 958 q 265 824 300 858 q 185 790 229 790 m 178 436 q 56 540 56 458 q 135 635 56 596 q 328 674 215 674 q 543 618 474 674 q 613 433 613 563 q 611 351 613 422 q 610 246 610 281 q 636 7 610 86 q 528 -10 575 -10 q 411 71 428 -10 q 326 9 378 32 q 221 -14 274 -14 q 92 35 144 -14 q 40 182 40 85 q 72 296 40 260 q 157 350 103 332 q 407 392 263 383 q 388 510 407 476 q 310 544 369 544 q 235 515 275 544 q 178 436 196 486 m 406 292 q 342 279 364 285 q 294 262 319 274 q 258 231 268 250 q 247 185 247 213 q 264 133 247 150 q 306 115 281 115 q 403 150 364 115 q 401 192 401 163 q 406 292 401 242 z "},"":{"ha":749,"x_min":40,"x_max":708,"o":"m 617 79 q 572 33 617 79 q 374 -14 526 -14 q 131 79 221 -14 q 40 329 40 172 q 131 582 40 489 q 374 675 221 675 q 617 582 526 675 q 708 329 708 489 q 617 79 708 172 m 547 319 q 506 434 547 383 q 374 485 465 485 q 246 443 290 485 q 201 346 201 401 q 242 226 201 278 q 372 175 283 175 q 503 217 458 175 q 547 319 547 260 z "},"":{"ha":550,"x_min":40,"x_max":529,"o":"m 407 131 q 517 136 453 131 q 529 78 529 111 q 512 19 529 40 q 464 -3 494 -3 q 374 -1 451 -3 q 217 0 297 0 q 60 -1 118 0 q 46 63 46 35 q 138 135 46 135 l 193 135 q 194 226 193 149 q 196 361 196 304 q 193 532 196 426 q 46 513 79 518 q 40 564 40 540 q 110 653 40 640 q 321 674 225 674 q 386 659 364 674 q 408 601 408 644 q 406 553 408 593 q 400 451 403 514 q 397 324 397 388 l 397 274 q 407 131 397 178 z "},"":{"ha":686,"x_min":19,"x_max":676,"o":"m 299 144 q 554 154 435 144 q 660 169 621 158 q 676 94 676 133 q 579 1 676 6 q 306 -3 493 -3 q 86 0 214 -3 q 19 100 19 0 q 21 135 19 124 q 290 297 194 201 q 386 469 386 393 q 358 529 386 504 q 292 554 331 554 q 150 440 206 554 q 78 469 103 446 q 54 525 54 492 q 142 624 54 574 q 338 674 229 674 q 531 624 467 674 q 596 493 596 574 q 517 303 596 400 q 299 144 438 206 z "},"":{"ha":639,"x_min":10,"x_max":583,"o":"m 122 315 q 294 358 238 315 q 351 460 351 400 q 328 521 351 500 q 269 542 306 542 q 180 513 222 542 q 118 431 138 483 q 38 465 65 438 q 11 531 11 492 q 96 626 11 579 q 289 674 181 674 q 487 613 415 674 q 558 468 558 551 q 518 361 558 413 q 411 281 478 310 q 535 195 488 257 q 583 60 583 133 q 476 -142 583 -64 q 182 -221 368 -221 q 10 -136 10 -221 q 33 -77 10 -106 q 88 -36 56 -49 q 218 -85 129 -85 q 328 -53 282 -85 q 375 40 375 -21 q 323 151 375 108 q 182 194 271 194 q 118 271 118 194 q 122 315 118 292 z "},"":{"ha":763,"x_min":0,"x_max":742,"o":"m 196 186 q 290 182 242 182 q 392 185 328 182 l 392 456 q 196 186 301 363 m 378 646 q 515 672 408 672 q 604 664 575 672 q 592 274 592 506 l 592 190 q 726 214 693 199 q 742 136 742 168 q 714 64 742 76 q 593 46 679 47 q 626 -203 593 -85 q 514 -221 568 -221 q 415 -200 442 -221 q 389 -136 389 -179 q 392 44 389 -92 q 31 58 107 44 q 0 139 0 64 q 3 174 0 154 q 190 433 63 269 q 378 646 318 596 z "},"":{"ha":654,"x_min":22,"x_max":614,"o":"m 460 507 q 258 517 394 507 l 243 360 q 347 367 285 367 q 543 293 472 367 q 614 83 614 219 q 512 -136 614 -51 q 238 -221 410 -221 q 77 -190 132 -221 q 22 -124 22 -160 q 48 -67 22 -94 q 113 -31 74 -40 q 239 -89 153 -89 q 360 -41 315 -89 q 406 72 406 7 q 354 191 406 140 q 208 242 303 242 q 69 232 153 242 q 56 321 56 253 q 74 663 56 354 q 396 660 121 660 q 571 671 528 660 q 592 599 592 639 q 460 507 592 507 z "},"":{"ha":703,"x_min":40,"x_max":663,"o":"m 350 -14 q 115 82 190 -14 q 40 328 40 178 q 72 522 40 425 q 163 699 104 618 q 314 830 221 779 q 518 881 407 881 q 614 803 614 881 q 606 738 614 782 q 513 747 574 747 q 382 712 436 747 q 301 615 328 676 q 262 489 274 553 q 250 350 250 425 q 360 119 250 119 q 433 173 406 119 q 460 297 460 226 q 361 454 460 454 q 346 453 351 454 q 333 513 333 489 q 361 559 333 542 q 432 576 389 576 q 595 517 528 576 q 663 339 663 457 q 581 87 663 188 q 350 -14 500 -14 z "},"":{"ha":649,"x_min":-35,"x_max":642,"o":"m 426 515 q 72 508 211 508 q -35 608 -35 508 q -18 672 -35 646 q 168 661 63 661 q 628 664 542 661 q 642 613 642 643 q 633 558 642 583 q 499 254 608 481 q 306 -125 389 28 q 250 -200 275 -179 q 192 -221 225 -221 q 108 -198 151 -221 q 40 -136 65 -175 q 256 163 149 -31 q 426 515 364 357 z "},"":{"ha":714,"x_min":35,"x_max":679,"o":"m 356 736 q 278 676 278 736 q 306 601 278 640 q 376 543 335 561 q 416 594 400 561 q 432 661 432 628 q 413 715 432 694 q 356 736 394 736 m 356 119 q 435 151 406 119 q 465 228 465 182 q 335 406 465 333 q 270 334 294 382 q 246 236 246 286 q 273 152 246 185 q 356 119 300 119 m 596 56 q 554 21 596 56 q 357 -14 513 -14 q 118 56 201 -14 q 35 226 35 126 q 85 365 35 301 q 233 467 135 428 q 114 551 157 494 q 71 669 71 608 q 144 809 71 751 q 356 867 217 867 q 567 809 493 867 q 642 669 642 751 q 475 482 642 547 q 629 375 579 444 q 679 226 679 306 q 596 56 679 126 z "},"":{"ha":703,"x_min":40,"x_max":663,"o":"m 353 674 q 588 578 513 674 q 663 332 663 482 q 631 138 663 235 q 540 -39 599 42 q 389 -170 482 -119 q 185 -221 296 -221 q 89 -143 89 -221 q 97 -78 89 -122 q 190 -87 129 -87 q 321 -52 267 -87 q 402 45 375 -17 q 441 171 429 107 q 453 310 453 235 q 343 540 453 540 q 270 487 297 540 q 243 363 243 433 q 342 206 243 206 q 349 206 343 206 q 357 207 354 207 q 369 147 369 172 q 342 101 369 118 q 271 83 314 83 q 108 143 175 83 q 40 321 40 203 q 122 573 40 472 q 353 674 203 674 z "},"":{"ha":797,"x_min":72,"x_max":725,"o":"m 596 444 q 472 540 542 532 l 474 119 q 613 201 558 125 q 725 99 725 169 q 653 15 725 43 q 474 -14 581 -14 q 482 -135 474 -60 l 451 -139 q 392 -83 392 -139 l 392 -8 q 158 97 244 11 q 72 325 72 183 q 160 560 72 468 q 392 669 249 651 q 386 741 390 696 q 382 792 382 786 q 418 799 417 799 q 472 743 472 799 l 472 674 q 578 657 524 671 q 678 610 633 643 q 724 535 724 578 q 690 478 724 503 q 596 444 656 454 m 288 322 q 392 132 288 174 l 392 528 q 315 451 343 506 q 288 322 288 397 z "},"":{"ha":1133,"x_min":111,"x_max":1022,"o":"m 990 225 q 1006 163 1001 183 q 1022 8 1022 86 q 1013 -1 1022 -1 l 976 -1 q 968 7 968 -1 q 978 17 968 17 l 1004 17 q 979 190 1004 82 l 972 221 q 942 271 967 249 q 876 297 917 293 q 740 328 817 303 q 719 338 721 335 q 716 374 718 346 q 713 411 714 401 q 639 429 675 411 q 635 439 635 431 q 644 447 635 447 q 669 438 646 447 q 725 429 692 429 q 763 439 753 429 q 780 522 768 446 q 801 618 792 597 q 807 708 807 636 q 801 800 807 772 q 621 935 776 935 q 439 876 504 935 q 374 711 374 817 q 405 559 374 621 q 490 483 436 497 q 499 472 499 481 q 494 399 499 464 q 489 332 490 335 q 483 329 486 329 q 363 297 447 329 q 258 264 289 268 q 164 189 181 253 l 154 149 q 131 17 135 65 l 328 17 q 338 8 338 17 q 328 -1 338 -1 l 121 -1 q 111 8 111 -1 q 136 150 115 67 l 147 192 q 183 252 153 225 q 257 285 213 279 q 369 319 288 289 q 474 347 442 346 q 481 467 479 425 q 388 551 421 486 q 356 711 356 615 q 425 891 356 826 q 621 956 494 956 q 822 804 789 956 q 826 732 826 779 q 819 611 826 649 q 794 497 801 567 q 772 425 788 443 q 731 410 761 413 q 734 374 732 397 q 736 347 736 351 q 881 315 821 322 q 953 284 924 311 q 990 225 982 257 m 704 782 l 711 775 l 686 736 l 668 751 l 704 782 m 715 775 l 722 782 l 758 751 l 740 736 l 715 775 m 718 797 l 708 797 l 701 840 l 725 840 l 718 797 m 707 794 l 703 785 l 660 794 l 668 815 l 707 794 m 722 785 l 719 794 l 758 815 l 767 794 l 722 785 z "},"ﬀ":{"ha":1035,"x_min":4,"x_max":1067,"o":"m 569 921 q 521 824 569 875 q 425 860 486 860 q 341 824 363 860 q 319 710 319 788 l 319 657 l 614 657 l 614 658 q 620 766 614 721 q 644 856 626 811 q 694 930 663 901 q 780 976 726 958 q 908 993 833 993 q 1067 921 1067 993 q 1018 824 1067 875 q 922 860 983 860 q 838 824 860 860 q 817 710 817 788 l 817 657 q 1000 668 940 660 q 1010 611 1010 649 q 984 548 1010 565 q 907 529 958 531 q 817 528 842 528 l 817 260 q 842 7 817 89 q 740 -4 794 -4 q 639 13 667 -4 q 611 68 611 29 q 613 242 611 83 q 614 526 614 400 l 614 528 l 319 528 l 319 260 q 344 7 319 89 q 243 -4 297 -4 q 142 13 169 -4 q 114 68 114 29 q 115 242 114 83 q 117 526 117 400 q 15 518 90 526 q 4 581 4 547 q 117 658 4 658 q 123 766 117 721 q 147 856 129 811 q 197 930 165 901 q 283 976 229 958 q 411 993 336 993 q 569 921 569 993 z "},"ﬁ":{"ha":839,"x_min":4,"x_max":789,"o":"m 664 664 q 746 646 717 664 q 775 575 775 628 q 770 453 775 567 q 765 282 765 339 q 789 14 765 85 q 674 -4 731 -4 q 583 19 608 -4 q 557 86 557 42 q 559 190 557 108 q 561 321 561 272 q 557 528 561 432 l 319 528 l 319 260 q 344 7 319 89 q 243 -4 297 -4 q 142 13 169 -4 q 114 68 114 29 q 115 242 114 83 q 117 526 117 400 q 15 518 90 526 q 4 581 4 547 q 117 658 4 658 q 222 913 119 829 q 510 997 325 997 q 680 967 611 997 q 749 881 749 938 q 707 803 749 828 q 569 778 665 779 q 528 840 553 819 q 460 861 504 861 q 360 824 401 861 q 319 710 319 788 l 319 657 l 592 657 q 664 664 629 664 z "},"ﬂ":{"ha":928,"x_min":4,"x_max":874,"o":"m 749 1032 q 831 1014 801 1032 q 860 943 860 996 q 855 821 860 935 q 850 650 850 707 l 850 269 q 874 14 850 86 q 758 -4 815 -4 q 667 19 693 -4 q 642 86 642 42 q 644 183 642 108 q 646 306 646 258 l 646 689 q 636 1014 646 888 q 749 1032 689 1032 m 569 921 q 521 824 569 875 q 425 860 486 860 q 341 824 363 860 q 319 710 319 788 l 319 657 q 503 668 443 660 q 513 611 513 649 q 487 548 513 565 q 410 529 461 531 q 319 528 344 528 l 319 260 q 344 7 319 89 q 243 -4 297 -4 q 142 13 169 -4 q 114 68 114 29 q 115 242 114 83 q 117 526 117 400 q 15 518 90 526 q 4 581 4 547 q 117 658 4 658 q 123 766 117 721 q 147 856 129 811 q 197 930 165 901 q 283 976 229 958 q 411 993 336 993 q 569 921 569 993 z "},"ﬃ":{"ha":1336,"x_min":4,"x_max":1286,"o":"m 1161 664 q 1243 646 1214 664 q 1272 575 1272 628 q 1267 453 1272 567 q 1263 282 1263 339 q 1286 14 1263 85 q 1171 -4 1228 -4 q 1080 19 1106 -4 q 1054 86 1054 42 q 1056 190 1054 108 q 1058 321 1058 272 q 1054 528 1058 432 l 817 528 l 817 260 q 842 7 817 89 q 740 -4 794 -4 q 639 13 667 -4 q 611 68 611 29 q 613 242 611 83 q 614 526 614 400 l 614 528 l 319 528 l 319 260 q 344 7 319 89 q 243 -4 297 -4 q 142 13 169 -4 q 114 68 114 29 q 115 242 114 83 q 117 526 117 400 q 15 518 90 526 q 4 581 4 547 q 117 658 4 658 q 123 766 117 721 q 147 856 129 811 q 197 930 165 901 q 283 976 229 958 q 411 993 336 993 q 569 921 569 993 q 521 824 569 875 q 425 860 486 860 q 341 824 363 860 q 319 710 319 788 l 319 657 l 614 657 l 614 658 q 718 913 614 828 q 1007 997 822 997 q 1177 967 1108 997 q 1246 881 1246 938 q 1204 803 1246 828 q 1067 778 1163 779 q 1026 840 1050 819 q 957 861 1001 861 q 858 824 899 861 q 817 710 817 788 l 817 657 l 1089 657 q 1161 664 1128 664 z "},"ﬄ":{"ha":1425,"x_min":4,"x_max":1371,"o":"m 569 921 q 521 824 569 875 q 425 860 486 860 q 341 824 363 860 q 319 710 319 788 l 319 657 l 614 657 l 614 658 q 620 766 614 721 q 644 856 626 811 q 694 930 663 901 q 780 976 726 958 q 908 993 833 993 q 1067 921 1067 993 q 1018 824 1067 875 q 922 860 983 860 q 838 824 860 860 q 817 710 817 788 l 817 657 q 1000 668 940 660 q 1010 611 1010 649 q 984 548 1010 565 q 907 529 958 531 q 817 528 842 528 l 817 260 q 842 7 817 89 q 740 -4 794 -4 q 639 13 667 -4 q 611 68 611 29 q 613 242 611 83 q 614 526 614 400 l 614 528 l 319 528 l 319 260 q 344 7 319 89 q 243 -4 297 -4 q 142 13 169 -4 q 114 68 114 29 q 115 242 114 83 q 117 526 117 400 q 15 518 90 526 q 4 581 4 547 q 117 658 4 658 q 123 766 117 721 q 147 856 129 811 q 197 930 165 901 q 283 976 229 958 q 411 993 336 993 q 569 921 569 993 m 1246 1032 q 1328 1014 1299 1032 q 1357 943 1357 996 q 1352 821 1357 935 q 1347 650 1347 707 l 1347 269 q 1371 14 1347 86 q 1256 -4 1313 -4 q 1165 19 1190 -4 q 1139 86 1139 42 q 1141 183 1139 108 q 1143 306 1143 258 l 1143 689 q 1133 1014 1143 888 q 1246 1032 1186 1032 z "},"ﬆ":{"ha":1219,"x_min":36,"x_max":1206,"o":"m 428 450 q 389 517 417 493 q 328 540 361 540 q 274 524 296 540 q 251 475 251 507 q 284 422 251 442 q 363 391 317 403 q 456 362 410 379 q 535 304 503 344 q 568 201 568 264 q 484 41 568 96 q 286 -14 400 -14 q 215 -10 250 -14 q 135 3 181 -7 q 63 40 90 14 q 36 103 36 65 q 149 219 36 178 q 201 144 163 169 q 283 119 240 119 q 376 186 376 119 q 327 238 376 218 q 219 272 278 258 q 112 331 161 285 q 63 456 63 378 q 147 614 63 554 q 336 674 231 674 q 458 656 400 674 q 449 718 449 686 q 526 863 449 811 q 711 915 604 915 q 889 869 807 915 q 971 735 971 824 q 969 694 971 722 q 967 658 967 665 q 1196 669 1111 658 q 1206 610 1206 650 q 1124 532 1206 536 q 964 529 1071 529 q 960 254 960 392 q 961 203 960 221 q 969 161 963 186 q 991 125 975 136 q 1032 114 1007 114 q 1143 156 1101 114 q 1200 74 1200 115 q 1152 10 1200 35 q 1038 -14 1104 -14 q 823 53 886 -14 q 760 251 760 119 l 760 529 q 636 519 688 528 q 625 578 625 550 q 738 660 625 660 l 757 660 l 754 743 q 734 804 753 786 q 671 822 715 822 q 574 776 615 822 q 532 669 532 729 q 556 588 532 632 l 554 588 q 564 550 564 568 q 530 485 564 513 q 428 450 496 458 z "}}}
